<?xml version="1.0" encoding="UTF-8" standalone="no"?>
<svg
   xmlns:dc="http://purl.org/dc/elements/1.1/"
   xmlns:cc="http://creativecommons.org/ns#"
   xmlns:rdf="http://www.w3.org/1999/02/22-rdf-syntax-ns#"
   xmlns:svg="http://www.w3.org/2000/svg"
   xmlns="http://www.w3.org/2000/svg"
   xmlns:sodipodi="http://sodipodi.sourceforge.net/DTD/sodipodi-0.dtd"
   xmlns:inkscape="http://www.inkscape.org/namespaces/inkscape"
   width="600"
   height="600"
   viewBox="0 0 158.75 158.75"
   version="1.1"
   id="svg1876"
   sodipodi:docname="moxk.jpeg.svg"
   inkscape:export-filename="/home/filipemosca/Github/moxknet.github.io/img/logo/moxk.png"
   inkscape:export-xdpi="96"
   inkscape:export-ydpi="96"
   inkscape:version="1.0.2 (e86c870879, 2021-01-15)">
  <sodipodi:namedview
     pagecolor="#ffffff"
     bordercolor="#666666"
     borderopacity="1"
     objecttolerance="10"
     gridtolerance="10"
     guidetolerance="10"
     inkscape:pageopacity="0"
     inkscape:pageshadow="2"
     inkscape:window-width="1366"
     inkscape:window-height="709"
     id="namedview39"
     showgrid="false"
     units="px"
     inkscape:zoom="2.6632774"
     inkscape:cx="280.91234"
     inkscape:cy="195.40045"
     inkscape:window-x="0"
     inkscape:window-y="0"
     inkscape:window-maximized="1"
     inkscape:current-layer="svg1876"
     inkscape:document-rotation="0" />
  <defs
     id="defs1870" />
  <metadata
     id="metadata1873">
    <rdf:RDF>
      <cc:Work
         rdf:about="">
        <dc:format>image/svg+xml</dc:format>
        <dc:type
           rdf:resource="http://purl.org/dc/dcmitype/StillImage" />
        <dc:title></dc:title>
      </cc:Work>
    </rdf:RDF>
  </metadata>
  <g
     id="layer1"
     transform="matrix(2.3347105,0,0,2.3347105,-148.85293,-269.48628)">
    <path
       style="fill:#1a1a1a;stroke:none;stroke-width:0.395445px;stroke-linecap:butt;stroke-linejoin:miter;stroke-opacity:1"
       d="m 93.72032,142.90288 7.02511,-2.96804 13.24864,2.26764 0.19226,-0.0164 1.89358,-2.56356 6.53942,0.52893 -7.37656,5.80066 z"
       id="path1780" />
    <path
       style="fill:#000000;stroke:none;stroke-width:0.395445px;stroke-linecap:butt;stroke-linejoin:miter;stroke-opacity:1"
       d="m 93.70231,142.97547 0.167634,6.00155 21.669606,4.4376 -0.31478,-7.38986 z"
       id="path1782" />
    <path
       style="fill:#000000;stroke:none;stroke-width:0.395445px;stroke-linecap:butt;stroke-linejoin:miter;stroke-opacity:1"
       d="m 115.32516,146.00465 0.3148,7.38986 7.05116,-6.84237 0.011,-6.34814 z"
       id="path1784" />
    <rect
       style="fill:#0000ff;fill-opacity:1;stroke:none;stroke-width:2.03152;stroke-opacity:1"
       id="rect1786"
       width="16.373558"
       height="15.692458"
       x="97.297066"
       y="124.89667" />
    <g
       aria-label="MOXK"
       id="g1796"
       style="font-style:normal;font-weight:normal;font-size:10.5833px;line-height:1.25;font-family:sans-serif;letter-spacing:-1.41817px;fill:#ffffff;fill-opacity:1;stroke:none;stroke-width:0.264583"
       transform="matrix(0.46462672,0,0,1.5555462,51.909933,-165.03551)">
      <path
         d="m 108.71649,194.98646 c -0.16443,-1.55833 -0.40952,-2.97563 -0.0723,-4.49219 0.0225,-0.10124 0.0476,-0.20258 0.0754,-0.30405 0.008,-0.0244 0.17665,-0.61313 0.57341,-1.3166 -0.69899,0.90327 -1.06516,1.66192 -1.22178,1.97784 -0.70303,1.41119 -0.89163,2.67983 -1.11624,4.11025 -0.35932,-0.005 -0.72248,-0.009 -1.08989,-0.0132 -0.71019,-1.38775 -1.55774,-2.72887 -1.83668,-4.08947 -0.10444,-0.64683 -0.0778,-1.29302 0.15248,-1.94041 -0.46289,0.74046 -0.60267,1.39152 -0.65111,1.58917 -0.36674,1.49648 0.0751,2.9173 0.46637,4.4227 -0.47745,-0.004 -0.96258,-0.007 -1.45621,-0.01 -0.7962,-2.48981 -1.63593,-4.79274 1.31585,-7.27399 0.80072,-0.007 1.56493,-0.0165 2.29756,-0.0276 -1.00809,1.37256 -0.96194,2.73077 -0.51957,4.09306 0.0383,0.13132 0.0803,0.26266 0.12537,0.39409 0.0996,0.32691 0.21857,0.65397 0.3479,0.98235 0.0649,-0.39267 0.14995,-0.78237 0.2677,-1.17417 0.49017,-1.45354 1.40186,-2.83754 3.13149,-4.36171 0.63949,-0.0155 1.25567,-0.0319 1.85341,-0.0487 -1.94517,2.67127 -1.54871,4.87821 -1.3556,7.50245 0.0571,9.2e-4 -1.34467,-0.0211 -1.28753,-0.0202 z"
         style="font-style:normal;font-variant:normal;font-weight:bold;font-stretch:normal;font-family:'Liberation Sans';-inkscape-font-specification:'Liberation Sans Bold';fill:#ffffff;fill-opacity:1;stroke-width:0.264583"
         id="path1788" />
      <path
         d="m 117.0491,191.32323 c -0.0357,0.78459 -0.17967,1.45995 -0.46501,2.06975 -0.20414,0.43629 -0.46722,0.80618 -0.78902,1.10603 0,0 0,0 0,0 -0.12375,0.11295 -0.25615,0.21501 -0.39714,0.30585 -0.0832,0.053 -0.16854,0.10161 -0.25598,0.14575 -0.44689,0.22653 -0.94536,0.33418 -1.50602,0.32387 -1.02508,-0.0189 -1.85317,-0.40331 -2.5079,-1.11007 -0.63371,-0.69071 -1.08285,-1.67269 -0.97216,-2.83828 0.11329,-1.19294 0.78468,-2.11158 1.71495,-2.82473 0.91673,-0.70276 1.89542,-1.09298 2.82158,-1.12163 0.5051,-0.0156 0.88876,0.0817 1.20004,0.29343 0.16959,0.12366 0.31718,0.27944 0.44756,0.46499 0.0689,0.0978 0.13307,0.2041 0.19303,0.31833 0.38061,0.71969 0.5696,1.69037 0.51607,2.86671 z m -1.42348,-0.004 c 0.0436,-0.73473 -0.0232,-1.33895 -0.2118,-1.79729 0,0 0,0 0,0 -0.0186,-0.0446 -0.0384,-0.0879 -0.0594,-0.12974 -0.23547,-0.47389 -0.60124,-0.70911 -1.18554,-0.69999 -0.5928,0.009 -1.15403,0.25568 -1.63432,0.72348 -0.4819,0.46682 -0.81583,1.09757 -0.88824,1.90717 -0.0722,0.80708 0.14031,1.46484 0.5058,1.93693 0.37389,0.47535 0.86493,0.72195 1.46943,0.72712 0.62664,0.005 1.10185,-0.22949 1.4409,-0.69693 0.0306,-0.0417 0.0598,-0.085 0.0877,-0.12977 0,0 0,0 0,0 0.28896,-0.46141 0.42924,-1.06275 0.4754,-1.84098 z"
         style="font-style:normal;font-variant:normal;font-weight:bold;font-stretch:normal;font-family:'Liberation Sans';-inkscape-font-specification:'Liberation Sans Bold';fill:#ffffff;fill-opacity:1;stroke-width:0.264583"
         id="path1790" />
      <path
         d="m 120.39565,195.14502 c -0.47733,-1.08199 -0.96801,-1.98846 -1.53236,-3.02445 -0.65292,1.09999 -1.11,1.887 -1.76834,3.06406 -0.43895,0.005 -0.87725,0.009 -1.31594,0.0128 -0.0418,-6.9e-4 -0.0837,-0.001 -0.1255,-0.002 -0.008,0.0147 0.14052,-0.24786 0.13217,-0.23312 0.82347,-1.46893 1.39599,-2.41885 2.25825,-3.79671 -0.65245,-1.17174 -1.25493,-2.39379 -1.45506,-3.69205 0.4237,0.007 0.84545,0.0155 1.26766,0.0239 0.21228,0.96349 0.61285,1.88212 1.06179,2.76608 0.51802,-0.87411 1.04905,-1.79094 1.50463,-2.7113 0.431,0.009 0.86723,0.0191 1.31108,0.0286 -0.51726,1.21492 -1.22351,2.43245 -1.91587,3.58831 0.79124,1.42287 1.41404,2.48173 2.05426,3.95637 -0.4969,0.007 -0.98872,0.0131 -1.47677,0.0195 z"
         style="font-style:normal;font-variant:normal;font-weight:bold;font-stretch:normal;font-family:'Liberation Sans';-inkscape-font-specification:'Liberation Sans Bold';fill:#ffffff;fill-opacity:1;stroke-width:0.264583"
         id="path1792" />
      <path
         d="m 126.13034,195.07093 c -0.66519,-1.20779 -1.365,-2.22524 -2.26728,-3.40391 -0.3386,0.26266 -0.5608,0.4343 -0.89941,0.69695 -0.0317,0.90555 -0.11485,1.80119 -0.24186,2.75027 -0.47873,0.006 -0.95219,0.0127 -1.4215,0.0189 0.30324,-2.76011 0.22593,-4.77013 0.0983,-7.55954 0.41885,0.009 0.84405,0.0182 1.27764,0.0272 0.16617,1.19467 0.27109,2.29388 0.29612,3.42219 1.0296,-1.10461 2.00685,-2.23684 2.64088,-3.36724 0.55877,0.009 1.13494,0.0177 1.73173,0.0255 -0.56539,1.04604 -1.46514,2.09216 -2.45102,3.12076 1.29493,1.51151 2.21337,2.71152 3.07287,4.24838 -0.62437,0.007 -1.2359,0.0134 -1.83644,0.0205 z"
         style="font-style:normal;font-variant:normal;font-weight:bold;font-stretch:normal;font-family:'Liberation Sans';-inkscape-font-specification:'Liberation Sans Bold';fill:#ffffff;fill-opacity:1;stroke-width:0.264583"
         id="path1794" />
    </g>
    <path
       id="path1800"
       style="fill:#000000;stroke:none;stroke-width:0.395445px;stroke-linecap:butt;stroke-linejoin:miter;stroke-opacity:1"
       d="m 114.89926,123.39258 -17.89388,0.66189 -0.42557,16.45965 17.41426,1.68836 z m -7.78068,2.33868 c 3.19584,0.0137 6.1348,0.40316 6.1348,0.40316 0,0 0.009,4.8051 -0.0842,7.06009 -0.0932,2.25496 -0.47578,6.47002 -0.47578,6.47002 0,0 -5.34314,-0.19958 -7.72817,-0.41477 -2.38503,-0.21517 -6.581989,-0.87662 -6.581989,-0.87662 0,0 -0.766451,-1.84142 -0.668096,-6.6121 0.09834,-4.7707 0.871992,-5.34623 0.871992,-5.34623 0,0 3.480643,-0.5402 7.154303,-0.66423 0.45921,-0.0155 0.92057,-0.0213 1.37712,-0.0192 z" />
    <path
       style="fill:#000000;stroke:none;stroke-width:0.395445px;stroke-linecap:butt;stroke-linejoin:miter;stroke-opacity:1"
       d="m 115.10095,123.38951 -0.91462,18.79664 2.06179,0.0268 3.05134,-1.83152 0.1075,-1.19506 1.97428,-0.91958 1.01557,-9.1657 -3.67642,-0.86843 c 0,0 -0.0802,-1.11325 -0.25969,-2.16418 -0.14125,-0.82706 -0.64924,-1.63833 -0.97273,-1.9858 -0.73448,-0.78895 -2.38704,-0.6933 -2.38704,-0.6933 z"
       id="path1802" />
    <path
       id="path1804"
       style="fill:#000000;stroke:none;stroke-width:0.395444px;stroke-linecap:butt;stroke-linejoin:miter;stroke-opacity:1"
       d="m 93.14072,149.14301 -5.2535,5.22324 24.17669,6.09902 3.91805,-6.40419 z m 0.279947,0.90732 14.998823,3.40292 -2.68853,3.90544 -15.790135,-3.51515 z m 16.368313,3.75539 4.21567,1.06494 -2.28311,3.97291 -4.553,-1.18853 z" />
    <g
       id="g1824"
       transform="matrix(0.77072845,0,0,0.77072845,-510.05195,-416.26304)">
      <ellipse
         style="opacity:1;fill:#550000;fill-opacity:1;stroke-width:0.191517"
         id="ellipse1806"
         cx="680.04541"
         cy="861.13989"
         rx="5.0688415"
         ry="5.8238406"
         transform="matrix(0.98070628,-0.19548706,0.14072002,0.99004943,0,0)" />
      <ellipse
         style="opacity:1;fill:#ffffff;fill-opacity:1;stroke:#000000;stroke-width:1.30171;stroke-linejoin:round;stroke-miterlimit:4;stroke-dasharray:none;stroke-opacity:1"
         id="ellipse1808"
         cx="1098.3619"
         cy="-366.94614"
         rx="7.4563751"
         ry="17.800138"
         transform="matrix(0.44607283,0.89499666,-0.75427533,0.65655825,0,0)" />
      <path
         style="fill:none;stroke:#000000;stroke-width:1.665;stroke-linecap:butt;stroke-linejoin:miter;stroke-miterlimit:4;stroke-dasharray:none;stroke-opacity:1"
         d="m 777.74424,730.46856 -17.7935,19.0897"
         id="path1810" />
      <path
         style="opacity:1;fill:none;stroke:#4f4f4f;stroke-width:2.41649;stroke-linecap:butt;stroke-linejoin:miter;stroke-miterlimit:4;stroke-dasharray:none;stroke-opacity:1"
         d="m 782.6267,733.59956 11.8464,13.74812 8.15863,-4.70447"
         id="path1812" />
      <ellipse
         style="opacity:1;fill:#000000;fill-opacity:1;stroke-width:0.208642"
         id="ellipse1814"
         cx="682.4317"
         cy="875.2442"
         rx="9.1514788"
         ry="10.784845"
         transform="matrix(0.97890449,-0.20431836,0.13450745,0.99091258,0,0)" />
      <ellipse
         style="opacity:1;fill:#000000;fill-opacity:1;stroke-width:0.251129"
         id="ellipse1816"
         cx="982.64581"
         cy="463.66281"
         rx="12.531292"
         ry="15.166716"
         transform="matrix(0.94955573,0.31359835,-0.33901782,0.94077995,0,0)" />
      <ellipse
         style="opacity:1;fill:#800000;fill-opacity:1;stroke-width:0.236197"
         id="ellipse1818"
         cx="700.48706"
         cy="885.88495"
         rx="5.9893608"
         ry="7.1833453"
         transform="matrix(0.97519126,-0.22136399,0.12385233,0.99230066,0,0)" />
      <ellipse
         style="opacity:1;fill:#ffffff;fill-opacity:1;stroke:#000000;stroke-width:1.58;stroke-linejoin:round;stroke-miterlimit:4;stroke-dasharray:none;stroke-opacity:1"
         id="ellipse1820"
         cx="950.66827"
         cy="619.05524"
         rx="9.6039753"
         ry="20.360609"
         transform="matrix(0.98697319,0.16088482,-0.25854195,0.96600003,0,0)" />
      <path
         style="fill:none;stroke:#000000;stroke-width:1.865;stroke-linecap:butt;stroke-linejoin:miter;stroke-miterlimit:4;stroke-dasharray:none;stroke-opacity:1"
         d="m 782.49044,731.39526 -7.61673,31.62153"
         id="path1822" />
    </g>
    <g
       id="g1846"
       transform="matrix(0.4166815,0.0375853,-0.0375853,0.4166815,-140.51489,-137.39702)">
      <g
         id="g1836"
         transform="matrix(0.08121863,0,0,0.08121863,692.14363,583.32937)">
        <path
           id="path1826"
           style="fill:#ffffff;stroke:#000000;stroke-width:3.99189;stroke-miterlimit:4;stroke-dasharray:none;stroke-opacity:1"
           transform="matrix(0.981756,0.190144,-0.144234,0.989544,0,0)"
           d="m -254.518,160.702 c 0.747,15.565 -2.568,28.03 -7.438,27.75 -2.351,-0.135 -4.75,-3.285 -6.663,-8.757 -1.913,-5.474 -3.177,-12.803 -3.512,-20.356 -0.335,-7.53 0.282,-14.648 1.708,-19.788 1.42,-5.118 3.526,-7.855 5.854,-7.629 4.824,0.468 9.308,13.313 10.051,28.78 z" />
        <path
           id="path1828"
           style="fill:#ffffff;stroke:#000000;stroke-width:4.13207;stroke-miterlimit:4;stroke-dasharray:none;stroke-opacity:1"
           transform="matrix(0.860392,-0.509633,0.437494,0.899222,0,0)"
           d="m -305.777,-57.8572 c -3.157,13.2625 -11.084,26.1135 -17.759,28.7379 -6.731,2.6466 -9.646,-6.0909 -6.455,-19.5511 3.195,-13.4769 11.259,-26.414 17.956,-28.8618 6.642,-2.4274 9.42,6.3963 6.258,19.675 z" />
        <path
           id="path1830"
           style="fill:#000000;stroke:#ffffff;stroke-width:3;stroke-miterlimit:4;stroke-dasharray:none;stroke-opacity:1"
           d="m -271.039,125.596 c -0.353,14.658 -6.755,27.468 -14.378,28.565 -7.715,1.111 -13.692,-10.174 -13.27,-25.156 0.202,-7.172 1.878,-14.203 4.648,-19.534 2.754,-5.303 6.36,-8.481 10.02,-8.857 3.64,-0.374 7.041,2.053 9.467,6.737 2.421,4.673 3.683,11.228 3.513,18.245 z" />
        <path
           style="fill:none;stroke:#000000;stroke-width:4.21417;stroke-linecap:butt;stroke-linejoin:miter;stroke-miterlimit:4;stroke-dasharray:none;stroke-opacity:1"
           d="m -300.532,101.269 7.757,23.855"
           id="path1832" />
        <path
           id="path1834"
           d="m -279.438,86.2107 -2.906,29.2123"
           style="fill:none;stroke:#000000;stroke-width:3.44295;stroke-linecap:butt;stroke-linejoin:miter;stroke-miterlimit:4;stroke-dasharray:none;stroke-opacity:1" />
      </g>
      <g
         aria-label="net"
         id="g1844"
         style="font-style:normal;font-weight:normal;font-size:18.9487px;line-height:1.25;font-family:sans-serif;fill:#cccccc;fill-opacity:1;stroke:none;stroke-width:0.473717"
         transform="matrix(0.92223055,0,0,0.92223055,52.428266,45.895832)">
        <path
           d="m 673.266,595.196 0.093,-5.115 c 0.029,-1.584 -0.22,-2.353 -0.749,-2.316 -0.282,0.021 -0.516,0.283 -0.702,0.79 -0.184,0.503 -0.285,1.143 -0.301,1.918 l -0.106,4.97 -1.212,0.169 0.168,-7.25 c 0.012,-0.495 0.017,-0.897 0.016,-1.208 0.001,-0.317 0.001,-0.599 -0.002,-0.847 l 1.137,-0.065 c 0.007,0.106 0.012,0.39 0.016,0.854 0.004,0.459 0.004,0.776 10e-4,0.95 l 0.016,-0.001 c 0.175,-0.707 0.385,-1.223 0.63,-1.549 0.244,-0.325 0.528,-0.496 0.854,-0.514 0.466,-0.026 0.817,0.244 1.053,0.809 0.236,0.564 0.345,1.404 0.327,2.523 l -0.094,5.722 z"
           style="font-style:normal;font-variant:normal;font-weight:bold;font-stretch:normal;font-family:'Liberation Sans';-inkscape-font-specification:'Liberation Sans Bold';fill:#ffffff;stroke-width:0.473717"
           id="path1838" />
        <path
           d="m 677.22,594.807 c -0.629,0.089 -1.111,-0.239 -1.444,-0.987 -0.333,-0.757 -0.489,-1.9 -0.466,-3.421 0.022,-1.464 0.213,-2.598 0.57,-3.401 0.355,-0.795 0.843,-1.208 1.461,-1.242 0.583,-0.032 1.021,0.35 1.316,1.144 0.295,0.787 0.435,1.962 0.422,3.535 l -10e-4,0.063 -2.621,0.268 c -0.011,0.859 0.056,1.501 0.2,1.925 0.146,0.417 0.358,0.608 0.634,0.573 0.379,-0.048 0.62,-0.426 0.726,-1.132 l 0.987,0.068 c -0.299,1.608 -0.89,2.48 -1.784,2.607 z m 0.089,-7.641 c -0.25,0.018 -0.447,0.215 -0.59,0.595 -0.14,0.381 -0.219,0.906 -0.235,1.575 l 1.597,-0.142 c -0.013,-0.694 -0.086,-1.207 -0.22,-1.542 -0.134,-0.34 -0.317,-0.502 -0.552,-0.486 z"
           style="font-style:normal;font-variant:normal;font-weight:bold;font-stretch:normal;font-family:'Liberation Sans';-inkscape-font-specification:'Liberation Sans Bold';fill:#ffffff;stroke-width:0.473717"
           id="path1840" />
        <path
           d="m 680.829,594.281 c -0.297,0.042 -0.525,-0.103 -0.685,-0.436 -0.16,-0.338 -0.237,-0.87 -0.232,-1.594 l 0.037,-5.01 -0.496,0.035 0.012,-1.482 0.545,-0.032 0.327,-1.972 0.622,-0.024 -0.01,1.943 0.717,-0.041 -0.006,1.451 -0.719,0.051 -0.025,4.365 c -0.002,0.413 0.032,0.714 0.102,0.904 0.07,0.184 0.18,0.267 0.328,0.248 0.078,-0.009 0.189,-0.06 0.332,-0.151 l -0.005,1.359 c -0.246,0.212 -0.527,0.341 -0.844,0.386 z"
           style="font-style:normal;font-variant:normal;font-weight:bold;font-stretch:normal;font-family:'Liberation Sans';-inkscape-font-specification:'Liberation Sans Bold';fill:#ffffff;stroke-width:0.473717"
           id="path1842" />
      </g>
    </g>
  </g>
</svg>
