<?xml version="1.0" encoding="iso-8859-1"?>
<!-- Generator: Adobe Illustrator 19.0.0, SVG Export Plug-In . SVG Version: 6.00 Build 0)  -->
<svg version="1.1" id="Layer_1" xmlns="http://www.w3.org/2000/svg" xmlns:xlink="http://www.w3.org/1999/xlink" x="0px" y="0px"
	 viewBox="0 0 512 512" style="enable-background:new 0 0 512 512;" xml:space="preserve">
<g>
	<g>
		<path d="M375.6,55.214C328.804,16.215,260.088-2.759,176.642,0.324C138.243,1.742,105.32,7.416,85.209,11.7
			c-7.937-0.45-15.285,1.087-21.767,4.838C46.26,26.46,38.942,49.746,42.836,82.103c3.576,29.677,16.147,64.382,35.4,97.733
			c35.239,61.03,80.959,99.392,114.916,99.392c6.133,0,11.883-1.259,17.119-3.859l161.085,232.677
			c1.784,2.572,4.643,3.953,7.556,3.953c1.802,0,3.621-0.529,5.216-1.631c4.168-2.886,5.208-8.605,2.322-12.772L224.144,263.153
			c2.264-3.292,4.14-7.041,5.622-11.22c37.057-36.737,92.347-47.69,141.155-57.344c20.664-4.087,40.182-7.941,56.777-13.481
			c24.702-8.228,39.617-13.203,42.14-26.567C473.226,136.572,452.548,119.336,375.6,55.214z M203.088,258.407
			c-20.682,11.975-70.508-21.162-108.951-87.749c-18.047-31.254-29.789-63.485-33.074-90.751
			c-2.682-22.264,0.665-38.644,9.179-45.766c2.049-0.551,7.653-2.012,16.048-3.832c24.477,3.119,63.713,35.198,95.276,89.868
			c18.047,31.254,29.793,63.486,33.078,90.76C217.567,235.184,213.355,252.483,203.088,258.407z M421.89,163.703
			c-15.488,5.163-34.454,8.909-54.532,12.88c-44.598,8.824-94.336,18.686-133.493,47.731c-0.025-4.925-0.335-10.108-0.994-15.571
			c-3.576-29.677-16.147-64.391-35.404-97.743C174.134,70.585,146.2,40.14,120.13,24.166c63.485-9.44,172.461-14.233,243.72,45.156
			c51.161,42.628,88.125,73.435,88.008,81.636C450.088,154.301,434.452,159.509,421.89,163.703z"/>
	</g>
</g>
<g>
</g>
<g>
</g>
<g>
</g>
<g>
</g>
<g>
</g>
<g>
</g>
<g>
</g>
<g>
</g>
<g>
</g>
<g>
</g>
<g>
</g>
<g>
</g>
<g>
</g>
<g>
</g>
<g>
</g>
</svg>
