<?xml version="1.0" standalone="no"?>
<!DOCTYPE svg PUBLIC "-//W3C//DTD SVG 20010904//EN"
 "http://www.w3.org/TR/2001/REC-SVG-20010904/DTD/svg10.dtd">
<svg version="1.0" xmlns="http://www.w3.org/2000/svg"
 width="300.000000pt" height="300.000000pt" viewBox="0 0 300.000000 300.000000"
 preserveAspectRatio="xMidYMid meet">
<metadata>
Created by potrace 1.10, written by Peter Selinger 2001-2011
</metadata>
<g transform="translate(0.000000,300.000000) scale(0.100000,-0.100000)"
fill="#000000" stroke="none">
<path d="M1061 2290 c-62 -22 -120 -45 -128 -52 -12 -9 -14 -34 -11 -120 2
-83 0 -108 -10 -108 -7 0 -17 -12 -23 -27 -8 -22 -6 -30 16 -53 23 -24 26 -35
23 -81 l-3 -54 -86 -44 c-107 -54 -119 -72 -119 -178 0 -86 5 -98 39 -111 23
-8 23 -11 23 -146 -1 -128 -3 -140 -22 -153 -32 -22 -26 -61 13 -79 31 -15 34
-14 127 36 l95 51 132 -63 c116 -56 131 -66 126 -84 -3 -17 3 -25 28 -38 18
-9 37 -16 42 -16 5 0 16 -8 23 -17 12 -17 15 -17 42 -2 29 16 31 16 223 -75
l194 -91 3 -36 c2 -25 -3 -40 -18 -54 -12 -11 -20 -31 -20 -51 0 -28 6 -38 40
-59 22 -14 46 -25 53 -25 15 0 407 316 407 328 2 169 0 1146 -3 1149 -2 2
-107 31 -233 64 -126 33 -364 96 -529 140 -165 44 -307 81 -315 83 -8 3 -66
-13 -129 -34z m189 -25 c30 -8 69 -17 85 -20 17 -3 41 -10 55 -15 14 -5 70
-21 125 -35 55 -15 201 -53 325 -85 277 -73 330 -89 330 -99 0 -4 -19 -18 -42
-30 -56 -29 -83 -49 -75 -57 3 -4 44 14 91 40 47 25 91 46 96 46 23 0 -4 -22
-68 -54 -37 -19 -78 -43 -92 -55 l-25 -21 44 15 c24 9 51 21 59 27 8 7 19 13
26 14 6 1 19 5 29 9 16 7 17 -22 17 -518 l0 -525 -52 -43 c-29 -24 -55 -46
-58 -49 -14 -15 -123 -104 -183 -149 -54 -41 -74 -51 -93 -47 -18 5 -24 13
-24 35 0 34 25 60 42 43 8 -8 15 -9 25 -1 18 16 19 225 1 232 -27 9 -38 -6
-38 -52 0 -50 -13 -81 -25 -62 -4 7 -82 48 -173 92 -180 86 -224 109 -232 119
-8 12 -116 60 -133 60 -9 0 -71 27 -139 61 -103 50 -130 60 -165 57 -46 -3
-52 2 -28 22 11 9 15 32 15 82 0 96 -4 96 168 17 35 -16 68 -29 75 -29 7 0 44
-16 82 -36 39 -20 88 -43 110 -51 22 -9 67 -28 100 -43 58 -26 95 -42 105 -45
3 0 19 -8 35 -17 39 -20 85 -31 85 -19 0 5 -6 11 -12 14 -53 23 -268 116 -523
227 -104 46 -230 100 -279 121 -50 22 -93 44 -96 49 -4 6 -7 34 -9 63 -1 39
-7 56 -23 70 -29 24 -17 44 48 77 27 14 51 28 52 33 2 4 9 7 15 7 6 0 22 12
34 27 22 25 25 35 27 93 1 21 6 25 31 24 33 -2 47 -5 88 -22 16 -7 34 -12 42
-12 8 0 17 -4 20 -10 3 -5 16 -10 29 -10 12 0 26 -4 31 -8 6 -5 53 -23 105
-41 52 -17 104 -36 115 -41 22 -10 170 -62 250 -88 28 -8 54 -15 59 -13 5 1
12 -2 15 -6 3 -5 38 -21 78 -36 39 -16 74 -34 76 -41 3 -8 -3 -42 -14 -76 -36
-118 -22 -121 21 -5 20 53 26 83 20 94 -8 16 -104 58 -210 92 -30 9 -125 42
-210 73 -85 32 -186 68 -225 81 -202 68 -329 115 -339 125 -19 19 10 11 211
-61 109 -39 230 -81 268 -94 39 -12 129 -44 200 -70 230 -83 297 -105 307 -99
27 17 24 18 -612 236 -113 39 -241 83 -285 98 -43 15 -81 33 -83 39 -5 14 0
14 35 0 37 -15 465 -163 573 -199 203 -67 371 -128 395 -144 14 -9 33 -32 42
-51 17 -37 13 -64 -23 -150 -25 -60 -28 -32 -5 43 20 65 20 72 5 108 -12 28
-18 34 -25 23 -5 -8 -6 -28 -3 -46 6 -33 -28 -165 -48 -190 -7 -9 -7 -13 0
-13 5 0 15 7 22 15 7 8 18 15 24 15 26 0 48 28 66 82 39 117 -8 196 -130 220
-8 2 -17 6 -20 9 -8 8 -124 44 -134 41 -5 -2 -12 1 -15 6 -5 8 -346 127 -601
209 -58 19 -112 38 -120 42 -11 6 -16 29 -18 86 l-3 78 38 -6 c21 -4 67 -16
103 -28 36 -12 72 -23 80 -25 8 -2 74 -22 145 -45 72 -22 144 -45 160 -49 17
-5 75 -23 130 -40 55 -17 105 -33 110 -34 6 -1 56 -17 111 -35 56 -18 112 -31
125 -29 26 4 -72 38 -351 122 -85 26 -186 58 -225 71 -88 29 -361 112 -397
121 -27 6 -39 24 -17 24 11 0 99 -26 304 -90 50 -16 160 -49 245 -75 85 -26
202 -62 260 -80 187 -60 214 -67 200 -50 -7 8 -31 20 -54 25 -22 6 -50 15 -61
20 -48 21 -218 70 -226 64 -5 -3 -9 -1 -9 4 0 4 -51 23 -112 41 -62 18 -138
41 -168 51 -30 10 -95 31 -145 45 -121 36 -156 50 -158 61 -2 10 87 43 118 43
11 1 45 -6 75 -14z m-460 -710 c0 -37 -4 -65 -10 -65 -6 0 -10 28 -10 65 0 37
4 65 10 65 6 0 10 -28 10 -65z m90 -124 c0 -4 -7 -16 -15 -27 -9 -12 -14 -44
-15 -92 0 -69 2 -76 30 -104 17 -16 28 -33 26 -37 -8 -12 -97 -53 -103 -47 -3
3 0 20 8 38 15 37 16 46 18 184 l1 101 25 -5 c14 -2 25 -7 25 -11z m39 -40
c20 -13 20 -149 0 -162 -26 -16 -29 -9 -29 81 0 90 3 97 29 81z m387 -370 c-8
-13 -36 -15 -36 -3 0 4 5 13 12 20 14 14 34 0 24 -17z m54 -12 c0 -8 -32 -29
-44 -29 -10 0 -6 26 5 37 12 12 39 7 39 -8z m50 -19 c0 -13 -48 -36 -56 -27
-4 4 -1 13 6 22 14 17 50 20 50 5z m467 -242 c-2 -35 -3 -9 -3 57 0 66 1 94 3
63 2 -32 2 -86 0 -120z"/>
<path d="M1237 1735 c-24 -23 -21 -42 3 -20 24 22 50 18 177 -32 75 -30 100
-45 115 -68 l18 -30 0 26 c0 26 -36 69 -59 69 -6 0 -25 7 -41 15 -16 8 -37 17
-47 18 -10 2 -31 10 -48 16 -53 23 -100 25 -118 6z"/>
<path d="M1251 1691 c-10 -18 -9 -20 10 -13 27 10 214 -58 235 -85 12 -17 13
-16 14 8 0 24 -8 29 -102 64 -140 50 -144 51 -157 26z"/>
<path d="M905 1621 c-54 -25 -74 -49 -71 -89 1 -33 3 -34 161 -104 88 -38 185
-80 215 -93 52 -21 86 -37 240 -105 36 -16 115 -50 175 -76 61 -26 114 -52
118 -58 5 -6 6 1 3 17 -5 19 -2 27 7 27 8 0 22 9 32 20 10 11 21 20 25 20 4 0
7 -36 6 -79 0 -44 4 -84 9 -90 7 -7 10 21 10 83 0 119 10 137 96 180 46 23 63
36 53 40 -14 5 -108 -39 -142 -66 -7 -6 -13 -9 -15 -7 -1 2 -9 17 -17 33 -15
29 -58 49 -380 177 -14 5 -38 15 -55 22 -16 6 -32 12 -35 13 -3 0 -18 6 -35
13 -123 51 -311 124 -322 125 -7 1 -16 5 -19 9 -10 10 -14 9 -59 -12z m365
-145 c157 -65 338 -138 403 -164 93 -36 116 -50 111 -62 -4 -8 -9 -27 -12 -43
-5 -32 -14 -39 -36 -31 -22 8 -20 21 4 27 11 3 20 11 20 17 0 9 -8 7 -25 -4
-26 -17 -61 -21 -69 -7 -3 4 13 16 35 26 22 10 38 23 36 29 -6 17 -39 6 -65
-21 -13 -15 -29 -22 -38 -19 -9 3 -20 6 -25 6 -22 0 -6 18 31 35 40 18 45 35
10 35 -11 0 -27 -11 -36 -25 -17 -25 -47 -32 -73 -16 -11 7 -4 14 28 30 23 12
39 26 36 31 -10 16 -22 12 -57 -19 -28 -24 -37 -27 -58 -19 -25 10 -25 10 15
30 48 25 50 26 42 34 -3 4 -27 -6 -52 -21 -43 -25 -75 -28 -75 -7 0 4 16 16
36 25 19 10 32 22 29 27 -10 16 -23 12 -54 -19 -21 -20 -37 -28 -51 -24 -34 9
-33 22 4 40 39 18 47 33 18 33 -10 0 -28 -12 -41 -26 -13 -15 -28 -23 -37 -20
-9 3 -20 6 -25 6 -21 0 -6 18 29 35 20 10 31 20 25 22 -7 3 -28 -5 -47 -16
-36 -23 -61 -27 -71 -11 -3 5 10 17 29 27 20 9 36 20 36 25 0 17 -35 7 -60
-17 -18 -17 -32 -23 -48 -18 -31 8 -28 17 13 36 19 9 35 21 35 27 0 18 -28 11
-56 -15 -29 -27 -41 -30 -63 -16 -12 7 -7 13 22 27 41 19 48 34 17 34 -10 0
-30 -11 -42 -25 -16 -17 -29 -23 -46 -19 -31 9 -28 18 14 38 20 9 34 19 31 23
-4 3 -22 -4 -42 -16 -39 -23 -60 -26 -70 -11 -3 5 10 17 29 27 38 18 47 33 19
33 -9 0 -29 -12 -45 -27 -23 -22 -31 -25 -50 -16 -22 10 -22 11 15 29 40 19
48 34 19 34 -10 0 -28 -11 -39 -24 -15 -17 -28 -23 -42 -19 -26 7 -20 17 19
33 16 7 30 17 30 22 0 6 -21 -2 -46 -17 -31 -18 -49 -24 -56 -17 -14 14 69 52
102 48 14 -2 153 -56 310 -120z"/>
<path d="M1940 1259 c-30 -17 -61 -38 -67 -47 -9 -10 -13 -50 -13 -111 0 -66
3 -91 10 -81 5 8 10 46 10 83 0 83 7 98 64 131 24 14 46 32 50 41 7 19 10 20
-54 -16z"/>
<path d="M1036 1033 c-35 -9 -170 -73 -188 -90 -16 -14 -18 -34 -18 -154 0
-135 1 -139 24 -154 46 -30 75 9 61 81 -8 44 -9 45 123 -26 l103 -55 -3 -79
c-2 -75 -1 -79 24 -92 23 -12 29 -11 50 6 23 18 25 23 20 99 l-4 79 29 15 c16
9 35 23 42 31 24 28 32 17 30 -38 -4 -77 27 -109 64 -68 14 15 17 41 17 138 0
81 -4 125 -12 136 -14 16 -289 162 -323 170 -11 3 -29 3 -39 1z m11 -73 c-14
-11 -29 -20 -34 -19 -4 1 -15 1 -23 0 -12 -1 -13 -3 -1 -10 15 -10 51 -3 51
10 0 5 6 6 14 3 9 -3 17 3 21 15 8 25 15 26 41 7 18 -14 17 -15 -18 -30 -21
-9 -38 -18 -38 -21 0 -8 54 -2 66 7 19 14 61 13 88 -2 32 -17 33 -27 4 -36
-13 -4 -31 -12 -41 -19 -15 -11 -14 -12 13 -11 16 1 30 4 30 8 0 3 12 11 28
16 22 8 36 5 72 -14 l45 -24 -3 -59 -4 -58 -41 1 c-73 2 -116 -44 -127 -134
l-7 -55 -2 46 c-1 51 -24 89 -69 112 -15 8 -56 31 -92 51 -71 39 -101 44 -120
21 -21 -26 -30 -6 -30 71 0 73 1 75 33 94 17 11 42 20 54 20 12 0 25 5 29 11
3 6 15 9 25 6 11 -3 19 -1 19 4 0 5 10 9 21 9 21 0 21 -1 -4 -20z"/>
<path d="M1137 904 c-15 -8 -31 -13 -35 -10 -4 3 -14 1 -22 -4 -12 -7 -11 -10
4 -16 19 -7 86 22 86 38 0 10 1 10 -33 -8z"/>
<path d="M1227 839 c-9 -5 -21 -8 -26 -4 -5 3 -12 1 -15 -4 -3 -5 1 -11 9 -15
8 -3 17 -1 20 5 4 5 10 7 15 4 4 -3 13 2 20 10 14 17 3 19 -23 4z"/>
</g>
</svg>
