<?xml version="1.0" standalone="no"?>
<!DOCTYPE svg PUBLIC "-//W3C//DTD SVG 20010904//EN"
 "http://www.w3.org/TR/2001/REC-SVG-20010904/DTD/svg10.dtd">
<svg version="1.0" xmlns="http://www.w3.org/2000/svg"
 width="340.000000pt" height="340.000000pt" viewBox="0 0 340.000000 340.000000"
 preserveAspectRatio="xMidYMid meet">
<metadata>
Created by potrace 1.16, written by Peter Selinger 2001-2019
</metadata>
<g transform="translate(0.000000,340.000000) scale(0.100000,-0.100000)"
fill="#000000" stroke="none">
<path d="M1220 2600 c-63 -20 -127 -43 -142 -50 l-28 -13 0 -127 c0 -116 -2
-128 -19 -133 -10 -2 -21 -17 -25 -32 -6 -22 -2 -33 18 -54 22 -23 26 -36 26
-88 0 -71 -7 -79 -118 -128 -35 -16 -74 -41 -87 -57 -23 -27 -25 -38 -25 -133
l0 -103 35 -21 35 -20 0 -154 0 -154 -25 -11 c-52 -24 -20 -102 42 -102 13 0
68 24 122 52 l98 53 149 -71 c130 -62 149 -75 149 -95 0 -16 7 -25 20 -27 11
-3 24 -10 28 -18 4 -8 17 -14 27 -14 11 0 20 -4 20 -9 0 -17 33 -21 56 -6 21
14 35 9 236 -86 117 -55 218 -105 224 -109 18 -16 9 -89 -15 -111 -11 -11 -21
-31 -21 -45 0 -47 94 -113 132 -93 24 13 420 338 436 357 9 12 12 159 12 658
0 502 -3 644 -12 651 -7 5 -283 80 -613 167 -330 87 -605 159 -610 161 -6 1
-62 -14 -125 -35z m388 -999 c205 -84 384 -156 399 -162 20 -7 23 -13 15 -21
-7 -7 -12 -24 -12 -38 0 -33 -16 -49 -41 -43 -26 7 -24 20 6 27 14 4 25 11 25
16 0 5 -16 2 -36 -6 -22 -9 -47 -13 -63 -9 -25 7 -24 8 24 32 62 32 63 32 45
43 -23 14 -27 13 -66 -24 -32 -31 -39 -33 -65 -24 -35 12 -32 19 21 43 22 10
39 23 37 29 -7 21 -27 16 -63 -18 -43 -41 -41 -40 -73 -22 l-25 14 42 21 c47
24 54 41 17 41 -15 0 -31 -9 -41 -25 -16 -25 -47 -32 -72 -16 -15 9 -6 19 46
45 19 10 31 20 29 23 -3 3 -28 -7 -56 -22 -37 -21 -57 -26 -78 -20 l-28 7 48
24 c52 27 61 44 22 44 -15 0 -31 -9 -40 -24 -21 -32 -41 -39 -71 -23 l-26 13
46 24 c45 25 51 40 15 40 -11 0 -33 -14 -48 -31 -28 -30 -30 -30 -57 -16 l-29
15 48 23 c26 13 47 27 47 31 0 5 -26 -5 -58 -21 -49 -25 -61 -27 -80 -17 -22
11 -21 13 23 34 25 12 43 27 40 32 -11 18 -34 11 -65 -20 -35 -34 -39 -35 -65
-16 -18 13 -16 15 23 35 24 12 40 26 37 31 -11 18 -36 10 -65 -22 -27 -29 -31
-31 -57 -19 l-28 13 43 21 c47 23 54 37 19 37 -13 0 -33 -11 -45 -25 -23 -26
-34 -29 -66 -16 -17 7 -14 11 22 31 23 13 42 27 42 31 0 4 -20 -4 -45 -18 -33
-18 -53 -23 -73 -18 -27 7 -26 7 21 31 29 15 45 29 41 36 -5 7 -2 9 7 6 8 -3
182 -74 387 -157z"/>
<path d="M1077 1132 c-142 -59 -137 -52 -137 -238 0 -138 2 -158 18 -170 21
-17 54 -18 70 -2 7 7 12 38 12 70 0 32 2 58 4 58 3 0 59 -30 125 -66 l121 -66
0 -87 c0 -54 5 -92 12 -99 17 -17 49 -15 76 4 20 14 22 24 22 107 l0 92 50 33
50 32 0 -65 c0 -54 3 -66 20 -75 28 -15 59 -3 71 27 14 36 11 253 -4 282 -17
34 -339 201 -387 201 -19 -1 -75 -17 -123 -38z"/>
</g>
</svg>
