<?xml version="1.0" standalone="no"?>
<!DOCTYPE svg PUBLIC "-//W3C//DTD SVG 20010904//EN"
 "http://www.w3.org/TR/2001/REC-SVG-20010904/DTD/svg10.dtd">
<svg version="1.0" xmlns="http://www.w3.org/2000/svg"
 width="300.000000pt" height="262.000000pt" viewBox="0 0 300.000000 262.000000"
 preserveAspectRatio="xMidYMid meet">
<metadata>
Created by potrace 1.10, written by Peter Selinger 2001-2011
</metadata>
<g transform="translate(0.000000,262.000000) scale(0.100000,-0.100000)"
fill="#000000" stroke="none">
<path d="M1041 2356 c-1 -15 -4 -16 -15 -6 -11 8 -20 9 -33 1 -17 -9 -16 -11
7 -20 23 -10 23 -11 -7 -5 -21 3 -33 2 -33 -5 0 -6 6 -11 13 -12 6 0 3 -4 -8
-9 -17 -7 -15 -9 12 -9 l33 -1 -34 -44 c-19 -25 -46 -70 -61 -101 -19 -37 -42
-65 -69 -84 -140 -96 -236 -268 -298 -534 -29 -123 -31 -146 -32 -322 -1 -250
11 -285 97 -285 38 0 105 44 154 100 45 51 105 164 97 184 -8 22 -19 20 -31
-6 -12 -26 -151 -191 -164 -196 -16 -6 -9 25 8 39 26 21 163 189 163 199 0 20
-22 20 -49 1 -46 -33 -193 -101 -218 -101 -34 0 -28 17 9 24 40 8 164 69 201
99 l28 22 -16 45 c-23 64 -45 220 -45 318 0 128 16 97 24 -45 4 -71 13 -159
21 -197 14 -68 80 -202 106 -219 10 -6 78 16 205 67 105 42 196 76 203 76 14
0 14 3 -6 68 -10 30 -23 56 -29 59 -16 6 -139 -31 -209 -63 -54 -25 -56 -28
-53 -60 1 -18 -1 -36 -5 -40 -4 -4 -7 10 -8 32 l-1 39 -16 -37 c-10 -21 -20
-38 -24 -38 -14 0 -8 33 9 52 23 25 11 32 -15 8 -12 -11 -24 -20 -27 -20 -13
0 -3 21 21 43 26 24 26 25 8 58 -14 28 -19 76 -26 269 -5 129 -12 254 -17 278
-13 62 2 51 31 -23 20 -50 23 -65 12 -65 -9 0 -14 -11 -14 -32 l1 -33 23 26
c18 21 34 27 82 32 32 3 66 8 75 12 13 5 18 -2 23 -30 4 -20 12 -35 17 -33 13
4 13 5 4 41 -6 24 -2 34 31 68 21 22 45 39 54 38 51 -5 51 -4 49 89 -1 55 -9
105 -20 136 -25 68 -15 71 15 5 14 -30 25 -48 25 -41 1 19 -28 84 -46 105 -16
17 -16 17 3 12 13 -5 10 1 -11 19 -36 31 -112 50 -170 43 -35 -3 -45 -1 -48
12 -4 13 -5 12 -6 -3z m89 -52 c0 -3 -15 -23 -32 -44 -31 -37 -78 -55 -78 -30
0 18 29 68 42 73 18 7 68 8 68 1z m31 -88 c5 -6 9 1 9 20 1 27 2 28 14 11 10
-13 15 -15 19 -5 3 9 9 8 21 -7 32 -41 48 -89 53 -162 l6 -76 -42 6 c-29 3
-41 2 -39 -6 1 -7 -8 -27 -22 -44 l-24 -33 -33 20 c-43 25 -66 26 -33 0 14
-10 22 -21 19 -24 -2 -3 -31 -9 -62 -14 -64 -10 -64 -11 -87 63 -7 22 -21 57
-32 78 -17 35 -18 37 -1 37 10 0 26 12 34 26 l16 26 7 -28 c4 -16 15 -37 23
-46 17 -20 43 -24 43 -8 0 6 -7 10 -15 10 -18 0 -31 24 -40 71 -8 41 12 65 45
54 25 -8 27 -25 2 -18 -15 4 -17 -1 -14 -36 4 -43 22 -47 22 -5 0 24 14 32 25
14 3 -5 13 -10 22 -10 13 0 15 9 10 57 -4 35 -3 52 3 43 7 -11 12 -8 22 15
l13 29 3 -24 c2 -14 8 -29 13 -34z m-278 -293 c3 -54 6 -165 7 -248 0 -105 5
-167 17 -208 12 -45 13 -63 4 -83 -6 -14 -11 -32 -11 -41 0 -25 51 -73 77 -73
28 0 30 -16 4 -30 -54 -28 -93 3 -135 110 -24 60 -24 63 -38 230 -6 80 -15
151 -21 158 -13 16 -32 15 -51 -4 -21 -21 -21 -179 0 -294 8 -47 18 -101 21
-120 l5 -35 -84 -44 c-120 -61 -124 -59 -120 64 8 248 112 538 239 663 30 28
60 52 67 52 9 0 15 -27 19 -97z m375 -516 c6 -5 12 -20 12 -32 0 -18 -7 -25
-32 -30 -18 -4 -70 -23 -115 -41 -94 -39 -107 -41 -94 -16 5 9 13 28 19 42 7
19 26 31 82 50 39 14 73 28 75 31 6 9 39 7 53 -4z m-541 -272 c0 -8 -4 -12 -9
-9 -4 3 -8 2 -8 -3 0 -4 -14 -24 -30 -43 -30 -35 -39 -73 -20 -85 18 -11 -10
-35 -40 -35 -39 0 -53 22 -54 86 -1 51 1 57 20 60 12 2 44 12 70 23 61 24 71
25 71 6z"/>
<path d="M1199 2170 c-13 -10 -21 -19 -17 -20 14 0 58 23 58 32 0 14 -16 9
-41 -12z"/>
<path d="M1236 2134 c-4 -12 -13 -14 -32 -10 -19 5 -24 4 -18 -6 15 -24 14
-48 -2 -48 -8 0 -13 -4 -9 -10 6 -10 52 3 47 14 -1 4 4 14 13 22 8 9 15 24 15
35 0 23 -6 25 -14 3z"/>
<path d="M1380 2185 c0 -10 10 -15 33 -15 17 0 133 -5 257 -10 399 -16 395
-16 398 7 3 18 -4 21 -59 27 -34 3 -190 6 -345 6 -246 0 -284 -2 -284 -15z"/>
<path d="M2090 2166 l0 -23 225 -2 225 -2 0 26 0 25 -225 0 -225 0 0 -24z"/>
<path d="M1410 1948 c0 -216 -4 -231 -52 -195 -23 17 -32 19 -46 10 -9 -6 -16
-16 -14 -23 1 -6 -2 -9 -8 -5 -5 3 -7 0 -4 -8 3 -8 -6 -18 -21 -25 -15 -7 -24
-8 -20 -2 3 5 2 10 -4 10 -5 0 -13 -5 -17 -11 -10 -17 18 -30 53 -24 17 3 34
1 37 -4 7 -11 -10 -17 -77 -26 -28 -4 -59 -16 -75 -30 -34 -30 -23 -43 15 -17
15 11 55 26 88 32 33 7 68 21 78 31 10 10 24 19 32 19 8 0 15 9 15 19 0 11 5
23 10 26 6 4 10 -18 10 -58 l0 -64 -102 -30 -103 -30 -6 -42 c-5 -42 -5 -42
20 -35 14 4 49 8 76 9 64 2 81 7 194 63 61 31 96 43 98 35 3 -7 18 -10 41 -8
20 3 29 2 20 -1 -29 -9 -20 -24 15 -25 l32 -2 -35 -7 c-22 -5 -27 -8 -13 -9
45 -2 53 -11 53 -57 0 -24 -4 -44 -10 -44 -5 0 -10 16 -10 35 0 33 -2 35 -33
35 -18 0 -42 -7 -53 -15 -14 -11 -35 -13 -85 -8 -58 5 -73 2 -128 -22 -53 -24
-62 -31 -56 -49 20 -71 19 -72 -27 -89 -24 -9 -49 -17 -56 -17 -7 0 -12 -13
-12 -30 0 -19 5 -30 14 -30 7 0 25 -9 40 -21 l26 -20 0 50 c0 50 6 60 26 42
10 -10 434 -261 440 -261 2 0 4 44 4 98 l0 97 -169 110 c-93 60 -167 113 -164
118 3 5 34 7 69 3 42 -4 72 -3 86 5 19 10 25 8 50 -22 25 -29 31 -32 48 -21
17 10 36 1 147 -69 126 -79 129 -80 178 -74 27 3 50 7 51 8 1 1 8 101 15 222
18 286 18 516 1 576 l-14 46 -126 6 c-70 4 -220 10 -334 13 l-208 7 0 -195z
m590 137 c14 -2 30 -4 37 -4 15 -1 33 -63 33 -113 0 -21 -1 -38 -3 -38 -1 0
-20 9 -42 20 -45 23 -82 25 -169 9 l-62 -12 -47 36 c-61 47 -109 57 -145 30
-16 -11 -49 -64 -79 -125 -28 -58 -56 -109 -62 -112 -12 -8 -16 260 -4 303 l6
23 256 -7 c141 -4 267 -9 281 -10z m-312 -109 c15 -8 39 -27 54 -43 l28 -29
-70 -154 c-69 -153 -70 -155 -100 -152 -17 1 -44 -5 -61 -13 -24 -13 -36 -14
-69 -4 -22 7 -40 14 -40 17 0 2 41 92 92 198 100 211 102 213 166 180z m268
-98 c-31 -57 -154 -326 -186 -405 -13 -35 -17 -38 -39 -24 -9 6 -11 18 -6 40
6 28 2 36 -30 66 -43 39 -45 27 23 188 71 167 68 163 154 177 40 7 78 14 83
15 33 11 33 0 1 -57z m14 -57 c-28 -56 -71 -151 -95 -212 -52 -126 -84 -193
-91 -186 -10 10 187 457 218 494 27 33 16 -2 -32 -96z m55 36 c-13 -24 -45
-90 -70 -147 -50 -114 -51 -106 14 -142 25 -14 31 -24 31 -50 0 -41 -70 -202
-82 -190 -6 6 1 31 17 63 42 82 56 129 45 148 -8 13 -9 11 -10 -12 0 -31 -68
-187 -81 -187 -14 0 -11 12 26 97 40 93 42 108 16 123 -25 13 -41 13 -41 -1 0
-19 -72 -164 -76 -154 -5 11 133 341 186 444 17 34 35 59 40 56 6 -4 0 -24
-15 -48z m36 -231 c-6 -71 -11 -162 -11 -202 0 -93 -11 -124 -45 -124 -14 0
-28 6 -31 13 -3 8 11 49 31 92 45 99 45 124 0 174 -19 21 -35 48 -35 59 0 22
62 166 83 190 18 23 21 -46 8 -202z m-696 104 c14 -16 16 -23 7 -32 -7 -7 -13
-9 -13 -5 -1 4 -3 12 -4 17 -1 6 -3 14 -4 19 0 5 -11 12 -23 14 -22 4 -22 4
-2 6 11 0 29 -8 39 -19z m85 -170 c17 -10 15 -12 -25 -33 -50 -25 -91 -30
-121 -14 l-27 14 64 21 c75 23 89 25 109 12z m190 -303 l95 -62 3 -53 3 -53
-33 14 c-18 8 -63 33 -101 56 -37 22 -69 41 -72 41 -17 0 -165 105 -166 119
-4 43 2 67 21 83 20 16 23 15 88 -33 37 -28 110 -79 162 -112z"/>
<path d="M2114 2104 c26 -67 28 -169 11 -489 -9 -181 -19 -335 -20 -342 -2 -6
-39 -19 -82 -28 -43 -9 -108 -24 -145 -32 l-68 -15 0 -94 0 -94 134 0 c74 0
137 -4 140 -9 3 -4 11 -154 17 -332 6 -178 12 -325 13 -326 1 -1 60 16 131 37
72 21 162 48 201 59 l72 21 6 688 c4 378 7 751 9 830 l2 142 -214 0 c-191 0
-213 -2 -207 -16z m373 -811 c-5 -611 -10 -790 -19 -799 -19 -18 -315 -104
-319 -93 -1 2 -7 137 -13 300 -10 262 -13 299 -29 317 -15 16 -37 21 -135 27
-64 4 -119 11 -122 16 -3 5 -3 30 0 56 l5 48 124 32 c70 18 132 40 142 50 16
16 21 59 38 348 10 182 17 365 14 408 l-6 77 163 0 163 0 -6 -787z"/>
<path d="M1271 1823 c-12 -16 -58 -65 -103 -110 -45 -45 -79 -86 -74 -90 5 -4
57 43 116 105 89 94 112 113 129 107 29 -9 26 -25 -3 -25 -16 0 -32 -11 -46
-30 -12 -16 -17 -30 -11 -30 5 0 17 10 26 23 l16 22 39 -22 c22 -12 40 -17 40
-12 0 5 -11 15 -25 21 -22 10 -23 12 -8 23 15 11 15 15 4 29 -22 27 -76 20
-100 -11z"/>
<path d="M1004 1565 c-46 -75 -46 -76 -34 -121 7 -24 17 -47 22 -50 18 -11 84
27 103 59 10 18 28 44 41 59 l22 27 -50 51 c-28 27 -52 50 -54 50 -1 0 -24
-34 -50 -75z m86 -32 c0 -27 -50 -93 -71 -93 -4 0 -11 9 -14 20 -6 20 26 86
49 102 13 9 36 -10 36 -29z"/>
<path d="M1380 1165 c0 -50 2 -55 23 -55 41 -1 106 -37 113 -64 6 -26 -10 -91
-29 -114 -9 -11 10 -33 83 -100 166 -151 215 -200 208 -208 -4 -3 -25 8 -48
26 l-40 32 -62 -21 c-70 -24 -109 -26 -126 -9 -25 25 -11 37 63 54 41 10 75
21 75 26 0 12 -21 10 -91 -8 -47 -12 -68 -13 -86 -5 -37 17 -23 34 45 56 34
11 61 22 61 25 -1 3 -24 25 -51 50 -47 42 -51 44 -62 26 -6 -11 -43 -67 -82
-125 -39 -58 -86 -132 -103 -163 -21 -37 -40 -58 -54 -60 -21 -4 -21 -5 4 -17
21 -10 36 -10 84 3 66 17 85 10 85 -30 0 -60 -123 -79 -218 -35 -48 23 -53 23
-70 8 -30 -28 -98 -1 -87 34 7 20 -10 25 -34 10 -7 -5 -22 -6 -32 -4 -31 8
-23 50 20 101 41 51 148 233 157 270 7 24 24 30 24 7 0 -17 -82 -175 -121
-232 -16 -23 -29 -44 -29 -47 0 -3 13 -6 28 -6 23 0 32 7 46 38 10 20 49 90
87 154 71 120 81 145 53 134 -9 -3 -42 -6 -75 -6 -57 0 -59 -1 -59 -26 0 -18
-14 -41 -43 -69 -51 -52 -133 -80 -208 -73 -27 3 -49 1 -49 -3 0 -5 16 -9 35
-9 19 0 35 -5 35 -11 0 -8 -14 -10 -42 -6 l-43 5 40 -14 40 -14 -38 4 c-22 3
-35 1 -32 -5 4 -5 20 -9 36 -9 17 0 28 -4 25 -8 -3 -5 -20 -7 -38 -6 -33 3
-33 3 7 -11 l40 -15 -38 4 c-22 3 -35 1 -32 -5 4 -5 17 -9 31 -9 32 0 80 -25
88 -45 3 -9 6 -39 6 -66 0 -36 5 -54 20 -69 25 -25 18 -40 -19 -40 -30 0 -61
34 -61 65 0 8 -4 15 -10 15 -5 0 -10 -11 -10 -24 0 -30 -42 -82 -58 -72 -8 5
-12 38 -12 92 0 91 -13 105 -25 27 -10 -71 -80 -129 -132 -109 -14 6 -11 11
17 34 30 26 33 32 27 71 -10 76 22 121 87 121 19 0 24 7 30 38 11 71 8 88 -21
101 -16 7 -45 24 -65 38 -31 21 -38 32 -38 59 0 32 -2 34 -33 34 -59 0 -93 53
-103 159 l-7 72 -116 -3 c-74 -2 -115 -7 -114 -13 29 -170 143 -896 143 -915
l0 -27 288 -6 c158 -3 694 -6 1192 -7 498 0 943 -3 989 -6 61 -4 82 -2 79 6
-2 7 -94 86 -203 176 l-200 164 -10 -56 c-8 -46 -15 -59 -33 -65 -29 -11 -43
-4 -35 18 5 13 2 15 -18 9 -13 -4 -80 -22 -149 -40 -116 -30 -125 -34 -128
-58 -2 -20 -10 -27 -34 -32 -45 -9 -48 -8 -48 17 0 16 -28 49 -94 110 -52 48
-96 87 -98 87 -2 0 -2 -56 0 -124 l3 -125 -38 -10 c-21 -6 -41 -11 -45 -11 -5
0 -8 160 -8 355 0 309 -2 355 -15 355 -10 0 -15 10 -15 28 0 26 -16 38 -190
145 -105 64 -195 117 -200 117 -6 0 -10 -25 -10 -55z m-932 -87 c5 -7 13 -33
17 -58 11 -71 33 -108 81 -136 24 -14 49 -38 56 -52 7 -15 37 -44 66 -66 65
-49 68 -78 10 -110 -52 -29 -69 -57 -75 -124 -4 -40 -13 -66 -31 -87 l-24 -29
30 -28 c33 -28 56 -28 112 2 18 10 25 9 44 -9 28 -26 40 -26 74 -1 26 20 29
20 61 4 41 -20 75 -8 93 33 7 16 13 29 14 31 1 2 17 -6 35 -17 37 -23 70 -26
99 -11 13 7 31 4 65 -11 80 -35 180 -25 224 22 49 52 6 135 -65 127 -19 -2
-34 0 -34 6 0 13 78 142 95 156 10 8 18 3 36 -20 72 -93 69 -90 113 -90 23 0
64 7 90 16 47 16 47 16 88 -12 22 -16 42 -33 44 -39 2 -5 5 -93 6 -194 l3
-184 -659 6 c-362 3 -663 10 -667 14 -5 5 -26 121 -49 258 -22 138 -51 317
-65 398 -26 154 -30 199 -18 210 12 12 120 8 131 -5z m1201 -53 c79 -49 88
-59 104 -102 17 -47 24 -192 11 -206 -4 -3 -45 29 -92 71 -149 134 -145 129
-136 160 5 15 9 51 9 80 0 28 4 52 9 52 5 0 48 -25 95 -55z m-639 -290 c0 -16
-41 -83 -64 -104 l-26 -24 -25 23 c-27 25 -32 54 -13 67 17 11 100 41 116 42
6 1 12 -1 12 -4z m1638 -370 c31 -25 66 -53 78 -63 11 -9 39 -33 62 -52 23
-19 42 -38 42 -42 0 -4 -207 -8 -460 -8 -253 0 -460 4 -460 8 0 4 5 13 11 19
7 7 14 46 17 87 2 42 8 76 11 76 9 0 90 -80 122 -121 34 -43 68 -41 120 6 21
19 51 37 66 41 16 3 61 14 101 25 53 14 78 16 92 9 36 -19 67 -11 97 24 15 19
32 35 36 35 5 1 34 -19 65 -44z"/>
<path d="M1018 1193 c-38 -9 -68 -19 -68 -23 0 -3 66 -14 148 -24 81 -9 162
-20 180 -23 27 -4 32 -2 32 15 0 11 -14 32 -31 46 -28 24 -38 26 -112 25 -45
-1 -112 -8 -149 -16z"/>
<path d="M1326 1201 c-8 -12 16 -71 29 -71 6 0 9 16 7 40 -4 37 -22 54 -36 31z"/>
<path d="M858 1108 c-33 -68 -85 -128 -145 -167 l-46 -31 99 0 c136 0 424 19
451 30 11 5 26 25 33 44 6 20 16 36 21 36 12 0 11 -17 -2 -42 -16 -30 -5 -32
29 -3 34 28 42 31 42 12 0 -7 -17 -23 -37 -35 -37 -21 -38 -22 -10 -22 15 0
27 -5 27 -11 0 -7 -12 -9 -34 -5 -31 6 -35 4 -45 -25 -6 -17 -28 -59 -49 -93
-61 -97 -127 -224 -120 -231 3 -4 39 -9 80 -12 l73 -5 24 43 c14 24 61 98 105
164 101 151 136 219 136 259 0 61 -19 68 -335 107 -93 11 -188 25 -210 30 -59
13 -59 13 -87 -43z m252 -14 c175 -22 314 -46 328 -57 24 -19 11 -64 -46 -157
-32 -52 -65 -106 -73 -120 -7 -13 -19 -30 -26 -37 -7 -8 -29 -40 -49 -73 -35
-57 -39 -60 -75 -60 -52 0 -51 14 7 115 26 44 56 97 67 118 12 20 35 46 53 56
19 12 41 38 53 63 18 39 18 45 4 61 -9 9 -22 17 -30 17 -7 0 -24 7 -37 15 -22
14 -25 13 -64 -30 -39 -43 -44 -45 -94 -45 -29 0 -111 -5 -181 -11 -156 -15
-166 -10 -115 53 19 24 40 53 46 65 22 41 40 51 79 46 21 -2 90 -11 153 -19z"/>
<path d="M1810 970 c0 -17 7 -20 45 -20 38 0 45 3 45 20 0 17 -7 20 -45 20
-38 0 -45 -3 -45 -20z"/>
<path d="M1930 955 c0 -19 -5 -25 -21 -25 -19 0 -21 -4 -15 -31 3 -17 6 -111
6 -208 l1 -176 96 -85 96 -84 -6 109 c-4 61 -10 203 -13 318 l-7 207 -68 0
c-67 0 -69 -1 -69 -25z m87 -13 c10 -6 33 -329 33 -464 0 -38 -14 -35 -68 16
l-47 45 -3 175 -4 176 30 30 c32 32 40 34 59 22z"/>
<path d="M1830 823 c0 -60 3 -213 7 -341 5 -184 9 -232 20 -232 11 0 13 62 13
340 0 333 0 340 -20 340 -19 0 -20 -7 -20 -107z"/>
<path d="M1032 903 c-7 -3 -24 -15 -36 -28 -37 -37 -98 -51 -163 -37 -31 6
-74 21 -97 32 -59 28 -86 27 -86 -5 0 -19 13 -31 65 -61 58 -32 75 -36 138
-37 59 -1 80 3 117 23 71 40 126 139 62 113z"/>
<path d="M800 891 l-65 -6 47 -14 c62 -18 172 -11 195 12 16 16 14 17 -47 15
-36 -1 -94 -4 -130 -7z"/>
<path d="M1550 770 c-14 -4 -38 -11 -54 -15 -19 -4 -26 -9 -19 -16 12 -12 126
11 125 26 -1 13 -22 15 -52 5z"/>
<path d="M1578 693 c-55 -14 -78 -33 -41 -33 29 0 133 32 133 41 0 12 -24 10
-92 -8z"/>
<path d="M675 596 c-19 -14 -24 -51 -11 -99 5 -22 1 -32 -20 -52 -32 -30 -17
-33 19 -4 15 11 31 38 38 62 18 67 28 87 43 87 17 0 25 -34 29 -120 2 -53 3
-54 16 -30 8 13 17 49 20 80 7 63 22 69 34 13 14 -60 35 -103 52 -103 15 0 15
2 1 22 -10 14 -16 44 -16 76 0 51 -1 54 -35 68 -44 18 -145 18 -170 0z"/>
<path d="M972 557 c-12 -13 -22 -27 -22 -31 0 -12 74 4 82 17 26 40 -25 52
-60 14z"/>
<path d="M1050 520 c-5 -10 -10 -24 -10 -30 0 -19 30 -23 50 -5 18 16 22 16
86 -10 76 -30 152 -31 182 -2 25 26 7 31 -52 17 -57 -13 -97 -6 -136 25 -8 7
-36 15 -62 18 -40 6 -49 4 -58 -13z"/>
</g>
</svg>
