<?xml version="1.0" standalone="no"?>
<!DOCTYPE svg PUBLIC "-//W3C//DTD SVG 20010904//EN"
 "http://www.w3.org/TR/2001/REC-SVG-20010904/DTD/svg10.dtd">
<svg version="1.0" xmlns="http://www.w3.org/2000/svg"
 width="900.000000pt" height="786.000000pt" viewBox="0 0 900.000000 786.000000"
 preserveAspectRatio="xMidYMid meet">
<metadata>
Created by potrace 1.10, written by Peter Selinger 2001-2011
</metadata>
<g transform="translate(0.000000,786.000000) scale(0.100000,-0.100000)"
fill="#000000" stroke="none">
<path d="M3117 7073 c-4 -3 -7 -16 -7 -28 0 -35 -11 -36 -43 -5 -30 29 -55 35
-49 11 1 -6 3 -17 5 -23 1 -8 -10 -14 -25 -16 -39 -5 -37 -32 1 -32 17 0 32
-4 36 -9 8 -14 -26 -19 -57 -8 -39 13 -92 5 -96 -14 -2 -11 7 -18 28 -23 40
-7 35 -28 -9 -37 -54 -11 -47 -19 18 -19 43 0 63 -4 67 -14 5 -12 -54 -107
-117 -187 -16 -20 -29 -40 -29 -43 0 -3 -19 -36 -41 -73 -59 -95 -109 -198
-109 -221 0 -29 -83 -108 -181 -174 -201 -134 -371 -321 -482 -528 -89 -164
-207 -406 -207 -422 0 -9 -4 -19 -10 -23 -5 -3 -14 -20 -19 -38 -5 -18 -20
-63 -34 -102 -44 -129 -94 -320 -132 -500 -9 -44 -21 -98 -27 -120 -44 -160
-74 -549 -71 -925 3 -431 26 -601 93 -682 45 -54 85 -69 198 -71 81 -1 103 2
132 19 270 155 429 332 574 639 26 55 53 112 61 127 21 37 18 59 -10 90 -25
29 -65 38 -65 16 0 -15 -87 -149 -122 -189 -13 -15 -99 -117 -193 -227 -122
-145 -176 -201 -192 -201 -12 -1 -24 2 -27 7 -5 9 11 28 290 348 137 158 244
298 244 321 0 24 -40 83 -56 83 -8 0 -46 -24 -84 -53 -74 -56 -98 -70 -250
-147 -126 -64 -227 -110 -241 -110 -6 0 -23 -6 -37 -14 -37 -20 -121 -46 -148
-46 -59 0 -31 44 35 56 34 6 55 13 139 49 18 8 47 21 65 28 57 25 241 118 272
137 17 11 37 23 45 27 23 11 154 108 168 126 10 12 10 23 -3 58 -9 24 -20 58
-25 74 -6 17 -14 39 -18 50 -19 43 -42 124 -42 145 0 12 -7 49 -15 83 -45 192
-81 631 -65 795 10 102 24 152 40 136 4 -5 10 -126 13 -269 5 -277 22 -478 56
-675 19 -106 79 -290 118 -360 95 -171 173 -286 218 -322 27 -21 50 -21 115 2
19 7 51 18 70 25 62 23 415 167 515 210 131 58 297 119 365 135 34 8 62 17
147 49 39 15 43 19 43 51 0 19 -18 87 -41 150 -22 63 -44 129 -50 145 -5 17
-17 40 -27 53 -17 22 -21 22 -67 11 -28 -6 -62 -18 -77 -25 -14 -8 -40 -14
-56 -14 -17 0 -43 -6 -59 -14 -15 -7 -53 -21 -83 -30 -53 -16 -103 -35 -165
-61 -16 -7 -50 -21 -75 -30 -73 -28 -183 -79 -210 -98 -23 -16 -24 -22 -25
-122 0 -130 -19 -143 -23 -15 -1 49 -6 90 -10 90 -20 0 -82 -111 -82 -146 0
-18 -15 -25 -35 -18 -12 5 -14 14 -10 38 8 38 42 98 61 109 14 8 19 39 8 50
-8 8 -48 -17 -98 -61 -42 -37 -62 -33 -50 12 4 16 29 44 65 72 64 49 70 65 43
117 -29 56 -33 65 -54 126 -11 33 -20 70 -20 82 0 11 -6 44 -14 72 -13 49 -21
285 -31 972 -2 174 -20 409 -35 468 -9 35 -10 51 -2 59 8 8 14 5 22 -13 5 -13
14 -31 19 -39 16 -27 71 -149 71 -158 0 -9 22 -60 41 -94 19 -37 12 -49 -27
-42 -46 8 -54 -3 -54 -78 0 -57 13 -108 27 -108 11 1 96 107 105 130 6 16 21
19 125 22 71 3 156 13 212 26 52 12 101 22 108 22 15 0 21 -14 48 -105 23 -76
35 -91 64 -76 26 14 26 17 0 90 -11 33 -21 68 -22 79 0 11 44 68 109 140 l109
121 55 -6 c77 -8 138 10 146 44 8 31 -3 253 -17 342 -8 53 -7 66 6 81 19 21
19 60 0 96 -8 16 -15 37 -15 46 0 17 -20 69 -46 120 -17 31 -18 71 -3 66 15
-5 79 -130 79 -154 0 -7 10 -32 21 -54 31 -60 45 -37 23 36 -37 128 -57 172
-104 234 -27 36 -47 66 -45 68 2 2 12 -1 23 -7 26 -14 52 -14 52 -1 0 11 -104
95 -147 117 -86 46 -200 72 -354 80 -95 5 -122 3 -148 -10 -37 -18 -61 -13
-61 13 0 20 -23 43 -33 33z m328 -358 c12 -94 55 -102 55 -9 0 66 17 71 44 14
21 -43 45 -52 53 -20 9 34 40 23 75 -27 37 -53 54 -81 64 -103 4 -8 12 -21 18
-29 16 -20 34 -77 56 -173 26 -114 29 -358 5 -378 -19 -16 -132 -8 -163 11
-20 12 -24 12 -32 -1 -5 -8 -10 -27 -10 -41 0 -14 -8 -34 -18 -45 -10 -10 -37
-44 -61 -74 -69 -87 -62 -86 -184 -26 -123 61 -155 59 -76 -4 59 -47 68 -71
29 -82 -112 -31 -260 -58 -323 -58 -31 0 -35 4 -55 53 -11 28 -37 99 -56 157
-47 138 -64 187 -75 208 -52 103 -53 128 -2 142 30 8 47 22 80 70 44 62 55 67
64 28 19 -82 60 -153 108 -188 39 -28 43 -29 70 -14 41 21 37 42 -8 49 -21 3
-45 10 -53 14 -54 29 -101 244 -69 315 6 13 28 32 49 41 36 16 39 16 78 -4 43
-22 69 -55 53 -66 -5 -3 -12 -1 -16 4 -8 14 -73 31 -91 24 -21 -8 -17 -23 9
-32 20 -8 22 -15 23 -90 1 -88 6 -101 32 -85 12 8 18 28 20 68 3 63 20 80 51
52 23 -21 104 -22 121 -1 9 11 11 47 8 130 -4 105 -3 115 13 115 20 0 62 50
78 93 15 40 28 26 36 -38z"/>
<path d="M3625 6529 c-33 -23 -60 -48 -60 -58 0 -20 14 -17 82 15 57 27 80 53
61 72 -16 16 -15 17 -83 -29z"/>
<path d="M3694 6374 l-29 -36 -45 16 c-25 9 -48 16 -52 16 -14 0 -8 -28 9 -45
12 -13 14 -21 6 -34 -7 -11 -6 -22 5 -38 17 -28 10 -53 -17 -53 -11 0 -26 -3
-35 -6 -29 -11 -6 -24 43 -24 55 0 87 25 78 60 -4 16 1 24 18 32 35 16 73 108
56 136 -5 9 -16 2 -37 -24z"/>
<path d="M4134 6566 c-3 -14 -4 -33 -2 -43 4 -23 42 -27 478 -42 184 -7 479
-18 655 -27 176 -8 383 -14 460 -14 77 0 207 -5 288 -10 184 -12 187 -11 187
70 0 54 -2 60 -22 65 -52 12 -789 25 -1390 25 l-648 0 -6 -24z"/>
<path d="M6278 6563 c-15 -4 -18 -15 -18 -63 0 -34 5 -62 13 -68 8 -7 228 -12
672 -14 l660 -3 3 68 c2 48 -1 68 -10 71 -17 6 -1298 14 -1320 9z"/>
<path d="M4243 6412 c-10 -6 -14 -142 -20 -575 -3 -312 -10 -567 -14 -567 -4
0 -23 14 -41 30 -18 17 -55 41 -83 55 -48 22 -49 24 -23 30 14 4 36 17 48 30
29 31 20 58 -32 96 -36 25 -50 29 -108 29 -86 0 -121 -24 -212 -146 -37 -49
-100 -118 -140 -154 -41 -36 -121 -116 -178 -178 -57 -61 -106 -112 -109 -112
-3 -1 -21 -14 -40 -30 -29 -24 -32 -32 -22 -44 21 -26 58 2 189 141 67 70 157
157 200 193 44 36 88 80 98 99 29 53 111 154 142 173 52 34 178 12 170 -30 -3
-14 -17 -18 -68 -20 -73 -3 -88 -13 -121 -76 -12 -22 -32 -52 -45 -65 -14 -13
-23 -29 -21 -35 6 -19 38 -19 52 1 8 10 15 13 15 6 0 -6 -4 -15 -10 -18 -18
-11 -11 -35 12 -44 l22 -8 -21 -11 c-14 -8 -20 -18 -16 -32 4 -13 -1 -22 -13
-25 -11 -4 -40 -17 -65 -31 -57 -29 -69 -30 -69 -5 0 30 -17 34 -39 9 -54 -57
5 -93 134 -83 86 7 135 -4 135 -30 0 -22 -36 -33 -143 -45 -206 -24 -281 -51
-364 -131 -45 -42 -51 -57 -31 -77 18 -18 23 -16 92 47 61 54 71 60 155 80 49
11 106 21 126 21 19 0 50 6 68 13 18 8 48 17 67 20 24 5 51 23 83 56 40 41 54
49 93 54 55 6 64 17 64 77 0 35 5 48 20 58 12 7 25 10 30 7 16 -10 13 -350 -2
-362 -12 -10 -48 -21 -178 -59 -30 -9 -77 -23 -105 -31 -27 -8 -70 -21 -95
-27 -25 -7 -70 -20 -100 -29 -30 -9 -66 -18 -80 -21 -52 -11 -59 -24 -69 -141
-6 -74 -5 -114 2 -123 12 -15 71 -6 102 14 11 8 31 14 45 14 14 1 36 7 50 15
35 20 56 18 90 -7 l29 -21 113 37 c62 20 136 43 163 52 80 25 202 81 330 153
194 107 250 125 257 79 2 -18 9 -22 28 -21 14 2 58 6 98 9 61 6 72 5 72 -9 0
-9 -14 -18 -37 -24 -28 -6 -39 -15 -41 -30 -3 -21 1 -22 82 -25 103 -4 116
-22 19 -26 -85 -3 -99 -8 -84 -26 6 -7 40 -16 77 -19 82 -6 110 -29 118 -95 8
-71 -6 -163 -27 -176 -28 -17 -37 9 -35 97 4 103 -5 111 -115 103 -65 -5 -86
-11 -123 -36 -98 -66 -143 -74 -243 -44 -68 20 -247 15 -307 -9 -56 -22 -211
-93 -254 -117 -46 -25 -49 -57 -15 -152 46 -124 46 -120 -27 -156 -35 -18 -70
-32 -79 -32 -8 0 -19 -4 -25 -10 -5 -5 -43 -20 -84 -34 l-75 -24 -3 -81 c-3
-81 -3 -81 25 -92 55 -21 129 -61 165 -90 36 -28 38 -29 48 -10 5 11 10 48 10
83 0 90 11 166 24 171 6 3 90 -42 186 -100 96 -57 184 -108 195 -114 11 -5 34
-18 50 -29 17 -11 39 -24 50 -30 11 -6 34 -19 50 -30 17 -11 39 -24 50 -29 11
-5 37 -21 58 -35 21 -14 40 -26 42 -26 1 0 105 -61 230 -135 125 -74 230 -135
233 -135 3 0 13 -6 21 -14 9 -7 43 -28 76 -46 33 -18 67 -39 76 -46 8 -8 25
-14 37 -14 l22 0 0 289 0 290 -162 107 c-90 59 -308 204 -486 321 -177 118
-329 216 -337 219 -25 10 -17 31 19 48 44 21 171 21 219 1 62 -26 141 -20 208
16 55 30 60 31 77 15 10 -9 23 -16 28 -16 16 0 74 -70 74 -89 0 -30 43 -61 82
-61 29 0 42 7 61 31 l25 32 108 -67 c60 -37 154 -96 209 -132 55 -35 110 -69
122 -76 12 -7 65 -40 118 -73 52 -33 103 -65 113 -70 9 -6 44 -28 76 -49 50
-32 65 -37 95 -32 100 17 148 26 171 35 14 5 37 12 51 15 31 7 31 9 49 391 12
259 34 610 56 885 8 114 14 322 14 540 0 311 -2 367 -20 455 -10 55 -24 116
-31 135 -25 78 -53 140 -63 140 -6 0 -85 5 -176 10 -91 6 -327 15 -525 20
-198 5 -450 14 -560 19 -295 14 -688 21 -702 13z m751 -467 c15 -8 33 -15 38
-15 5 0 40 -20 77 -44 62 -41 191 -167 191 -187 0 -5 -13 -35 -29 -66 -16 -32
-40 -83 -54 -113 -23 -51 -33 -75 -88 -212 -12 -29 -38 -89 -59 -133 -21 -44
-50 -105 -63 -135 -14 -30 -41 -90 -61 -133 -20 -42 -36 -80 -36 -83 0 -3 -9
-19 -21 -35 -24 -34 -62 -38 -111 -13 -41 21 -75 15 -181 -35 -48 -23 -94 -41
-101 -41 -8 0 -43 13 -78 29 -36 16 -79 32 -96 35 -16 4 -33 14 -36 23 -4 9
21 72 58 147 102 209 213 440 371 771 92 194 116 239 129 247 20 13 120 8 150
-7z m936 -179 c0 -14 -4 -27 -9 -30 -5 -4 -19 -27 -31 -54 -12 -26 -26 -56
-32 -67 -34 -62 -168 -330 -187 -376 -13 -30 -37 -83 -53 -119 -27 -58 -45
-98 -93 -205 -8 -16 -41 -87 -74 -157 -34 -70 -61 -132 -61 -139 0 -6 -6 -23
-14 -37 -8 -15 -28 -63 -46 -107 -60 -151 -69 -168 -88 -160 -9 4 -33 13 -52
20 -34 13 -35 14 -33 67 1 29 4 69 8 88 4 22 1 48 -9 71 -17 42 -79 109 -99
109 -8 0 -33 18 -56 41 -40 37 -43 43 -36 77 4 20 13 48 20 62 8 14 26 52 40
85 15 33 35 78 45 100 10 22 26 60 35 85 10 25 23 59 30 75 8 17 28 66 45 110
18 44 43 105 57 135 14 30 34 75 45 100 67 150 76 159 204 189 163 38 263 53
402 59 38 2 42 0 42 -22z m115 -15 c3 -6 -14 -43 -38 -83 -48 -83 -197 -380
-197 -395 0 -6 -11 -31 -24 -56 -23 -43 -135 -302 -178 -412 -27 -71 -33 -85
-53 -130 -10 -22 -37 -83 -60 -135 -74 -169 -138 -290 -152 -290 -21 0 -15 30
19 100 34 70 47 100 73 170 10 25 23 59 30 75 7 17 21 50 30 75 10 25 23 59
31 75 7 17 29 71 49 120 20 50 65 149 100 220 34 72 80 171 100 220 21 50 51
118 66 153 16 34 29 65 29 68 0 3 14 26 30 51 17 24 30 46 30 48 0 3 14 28 32
57 41 70 68 92 83 69z m64 -60 c8 -14 4 -31 -18 -72 -15 -30 -56 -108 -90
-173 -34 -65 -73 -146 -87 -178 -14 -32 -40 -91 -58 -131 -19 -40 -44 -97 -56
-127 -12 -30 -35 -86 -51 -124 -16 -38 -29 -73 -29 -79 0 -14 26 -32 109 -74
40 -21 93 -56 117 -79 l44 -40 0 -90 c0 -85 -2 -93 -45 -178 -25 -50 -45 -95
-45 -102 0 -6 -7 -17 -15 -24 -8 -7 -15 -18 -15 -25 0 -7 -21 -59 -47 -114
-40 -86 -51 -101 -70 -101 -31 0 -38 22 -19 57 40 73 166 342 166 355 0 7 6
23 14 34 8 11 20 48 27 83 11 54 11 66 -2 89 -8 15 -19 26 -24 25 -6 -2 -13
-35 -16 -75 -6 -77 -9 -87 -96 -268 -31 -63 -71 -148 -89 -187 -19 -40 -38
-73 -43 -73 -4 0 -16 9 -26 20 -13 14 -15 23 -7 32 5 7 22 41 36 76 15 35 42
95 60 135 19 40 44 97 56 127 12 30 28 70 36 88 22 52 18 125 -8 148 -39 34
-119 68 -136 58 -8 -5 -30 -50 -49 -99 -19 -50 -41 -103 -48 -120 -8 -16 -26
-57 -40 -90 -66 -148 -97 -201 -114 -190 -18 11 -12 44 18 104 49 96 151 319
151 329 0 5 12 36 26 68 15 33 30 70 34 84 16 47 47 128 70 176 13 27 30 65
38 84 8 19 18 42 22 51 5 8 33 75 65 148 31 73 65 149 77 169 11 20 43 82 71
137 45 88 85 155 94 155 1 0 7 -8 12 -19z m-2055 -365 c76 -43 118 -81 114
-104 -6 -29 -35 -25 -75 11 -38 33 -108 67 -140 67 -9 0 -24 -7 -34 -16 -10
-9 -20 -11 -23 -6 -3 5 1 15 9 22 8 7 15 18 15 26 0 16 28 33 54 34 11 0 47
-15 80 -34z m-27 -101 c2 -6 -20 -10 -50 -10 -54 0 -76 16 -35 26 29 7 80 -3
85 -16z m89 -92 c7 -39 0 -61 -21 -70 -23 -8 -38 11 -37 48 0 17 -4 42 -9 56
-14 37 -2 45 31 21 18 -13 32 -34 36 -55z m-100 -23 c9 -48 9 -67 0 -72 -32
-22 -60 11 -50 60 5 23 1 33 -16 45 -29 20 -17 39 23 35 30 -3 32 -6 43 -68z
m-96 -30 c0 -16 -7 -20 -34 -20 -42 0 -56 17 -24 29 39 16 58 13 58 -9z m405
-403 c26 -10 41 -22 43 -35 5 -35 -216 -131 -345 -149 -24 -4 -51 4 -98 28
-36 19 -65 39 -65 45 0 6 26 19 58 29 31 10 73 23 92 30 19 7 62 20 95 30 33
9 76 23 95 30 39 16 67 14 125 -8z"/>
<path d="M6320 6325 c0 -13 6 -39 14 -57 24 -57 38 -128 52 -268 26 -248 27
-288 11 -532 -9 -134 -23 -358 -32 -498 -8 -140 -20 -331 -26 -425 -6 -93 -14
-262 -19 -375 -12 -266 -24 -380 -41 -391 -8 -5 -23 -9 -33 -9 -11 0 -42 -6
-70 -14 -28 -8 -87 -22 -131 -31 -159 -34 -221 -47 -275 -60 -30 -7 -86 -20
-125 -29 -38 -8 -104 -23 -146 -33 l-76 -17 -7 -105 c-10 -171 -7 -449 5 -457
6 -3 185 -10 397 -15 213 -5 397 -11 408 -14 29 -7 34 -30 34 -165 0 -63 6
-279 14 -480 9 -201 22 -567 31 -815 9 -247 17 -463 18 -480 2 -27 5 -30 32
-29 17 1 53 8 80 17 44 13 107 31 200 58 17 4 53 15 80 23 85 26 189 57 220
65 85 24 234 68 325 95 25 8 70 21 100 30 30 10 71 21 90 25 49 11 88 31 94
48 3 7 6 278 8 601 1 323 5 772 9 997 4 226 13 1035 19 1800 7 765 13 1428 14
1475 l1 85 -637 3 -638 2 0 -25z"/>
<path d="M3128 4885 c-10 -13 -18 -26 -18 -29 0 -3 -21 -36 -46 -73 -26 -38
-80 -124 -120 -191 -90 -151 -92 -176 -28 -330 8 -18 14 -39 14 -46 0 -7 10
-26 22 -41 18 -24 26 -26 59 -21 39 6 159 64 195 94 26 21 84 111 113 172 12
25 36 61 54 80 44 47 77 95 77 113 0 8 -15 27 -32 42 -66 54 -207 196 -225
225 -21 36 -42 38 -65 5z"/>
<path d="M4140 3651 c-12 -23 -14 -317 -2 -325 5 -3 44 -12 88 -21 93 -19 173
-44 195 -62 8 -7 20 -13 25 -13 5 0 23 -14 41 -30 38 -36 49 -88 39 -191 -6
-70 -17 -102 -67 -201 -16 -32 -29 -63 -29 -68 0 -10 136 -145 239 -237 25
-23 96 -85 156 -140 61 -54 112 -100 115 -104 3 -3 41 -38 85 -77 44 -39 127
-115 184 -170 93 -89 103 -102 97 -126 -3 -14 -12 -26 -19 -26 -8 0 -56 40
-108 90 -102 97 -113 101 -184 74 -22 -8 -51 -19 -65 -24 -14 -5 -50 -18 -80
-30 -30 -12 -102 -30 -159 -40 -96 -18 -106 -18 -145 -3 -46 18 -75 48 -76 79
0 23 29 54 51 54 8 0 34 6 59 14 25 8 71 21 103 30 31 9 81 22 110 30 28 8 64
18 79 21 15 3 32 14 38 25 8 15 6 21 -11 30 -24 13 -110 5 -149 -14 -14 -7
-63 -21 -110 -30 -47 -10 -104 -22 -127 -27 -83 -18 -193 25 -193 76 0 18 12
29 63 52 80 38 121 53 177 64 64 13 138 34 145 41 4 4 3 13 -2 20 -16 28 -293
278 -307 278 -15 0 -36 -29 -75 -100 -23 -44 -109 -171 -197 -295 -70 -97
-144 -205 -144 -210 0 -2 -19 -32 -43 -67 -24 -35 -46 -70 -50 -78 -4 -8 -16
-28 -27 -45 -11 -16 -24 -40 -30 -53 -5 -12 -25 -46 -43 -75 -18 -28 -45 -78
-60 -109 l-26 -58 -55 0 c-86 0 -68 -35 36 -75 53 -20 83 -18 193 15 98 29
175 41 212 34 25 -5 37 -15 53 -48 25 -53 25 -76 0 -118 -80 -136 -400 -166
-610 -58 -19 10 -57 30 -83 44 -69 36 -113 43 -137 21 -11 -10 -20 -24 -20
-32 0 -37 -114 -38 -197 -3 -48 21 -55 38 -51 115 l3 50 -40 -1 c-26 0 -52 -9
-71 -23 -28 -20 -37 -22 -90 -14 l-59 8 -3 64 c-3 72 12 104 98 196 66 71 153
191 180 250 20 42 107 190 172 293 45 72 106 193 145 287 18 42 36 71 46 73
21 4 22 -16 3 -60 -8 -18 -22 -53 -31 -78 -10 -25 -36 -81 -58 -125 -132 -266
-180 -352 -238 -432 -138 -186 -138 -187 -48 -197 117 -12 115 -13 138 49 11
30 25 63 30 72 14 25 130 225 141 243 6 8 14 24 19 36 5 12 27 48 48 80 48 74
60 95 69 114 4 8 13 22 19 30 7 8 27 42 45 75 18 33 38 67 44 75 23 29 69 123
76 155 12 54 4 58 -91 44 -46 -7 -147 -15 -224 -18 l-140 -6 -7 -64 c-4 -38
-18 -86 -35 -119 -36 -71 -134 -161 -221 -202 -37 -17 -78 -37 -92 -44 -65
-32 -261 -76 -338 -76 -26 0 -78 7 -117 15 -87 19 -85 19 -85 -4 0 -31 26 -43
110 -48 67 -5 80 -9 78 -22 -3 -13 -15 -16 -58 -15 -30 1 -74 5 -96 9 -56 10
-66 -9 -17 -31 21 -10 64 -20 96 -23 31 -3 57 -10 57 -16 0 -15 -100 -18 -143
-4 -44 15 -57 7 -32 -21 15 -17 31 -20 91 -20 65 0 97 -11 80 -27 -5 -5 -124
-5 -170 0 -31 3 -30 -22 1 -33 15 -5 36 -15 45 -20 10 -6 38 -10 64 -10 32 0
44 -4 41 -12 -5 -16 -85 -14 -101 2 -16 16 -76 13 -76 -5 0 -25 42 -44 110
-48 74 -5 201 -60 229 -99 38 -54 51 -119 51 -251 0 -148 16 -197 70 -215 23
-8 30 -17 30 -36 0 -54 -100 -76 -165 -36 -57 35 -106 118 -120 201 -3 21 -13
52 -23 70 l-17 34 -7 -87 c-9 -109 -49 -201 -110 -253 -85 -72 -94 -51 -103
241 -4 128 -11 238 -16 245 -13 21 -49 -18 -49 -54 0 -62 -38 -202 -79 -286
-38 -78 -182 -155 -281 -149 -67 4 -86 26 -49 57 13 11 29 20 36 21 20 0 102
91 113 126 9 25 8 48 -1 91 -19 91 -15 203 10 251 39 76 119 121 236 131 l70
6 12 60 c17 82 32 286 22 306 -5 9 -52 38 -106 64 -124 61 -250 156 -269 201
-8 18 -14 63 -14 99 0 76 -2 78 -110 89 -98 11 -126 23 -171 74 -72 83 -102
183 -119 402 -6 85 -14 166 -17 179 l-6 24 -336 -7 c-210 -5 -340 -11 -348
-18 -14 -11 -12 -31 12 -178 8 -47 21 -130 30 -185 9 -55 23 -138 30 -185 8
-47 21 -132 30 -190 9 -58 23 -143 30 -190 14 -81 28 -170 59 -365 8 -49 22
-137 31 -195 9 -58 23 -143 30 -190 8 -47 21 -130 30 -185 9 -55 23 -138 30
-185 8 -47 21 -128 29 -180 9 -52 22 -135 31 -185 8 -49 16 -106 19 -125 6
-49 26 -173 40 -250 l12 -65 564 -6 c311 -3 610 -9 665 -12 55 -4 1025 -9
2155 -12 1130 -4 2541 -10 3134 -15 775 -7 1083 -6 1093 2 7 6 13 16 13 22 -1
9 -138 128 -270 232 -22 18 -61 49 -87 70 -178 147 -234 194 -278 229 -28 22
-59 47 -70 57 -60 49 -232 190 -291 238 -37 30 -84 69 -103 85 -78 67 -123 97
-130 89 -5 -5 -13 -73 -19 -152 -6 -79 -14 -148 -18 -154 -4 -6 -40 -26 -82
-45 -86 -39 -93 -36 -102 35 -7 60 -20 63 -137 24 -48 -16 -115 -37 -148 -46
-33 -9 -82 -23 -110 -31 -94 -27 -171 -45 -191 -45 -11 0 -60 -13 -109 -29
-50 -16 -106 -31 -126 -35 -59 -10 -73 -27 -79 -92 -6 -65 -13 -72 -105 -94
-27 -7 -57 -14 -65 -16 -30 -8 -45 14 -50 78 l-5 62 -156 141 c-86 77 -191
172 -234 210 -43 39 -99 89 -124 112 -25 23 -52 43 -59 43 -10 0 -13 -70 -12
-342 0 -189 1 -353 0 -365 0 -23 1 -23 -140 -64 -80 -23 -106 -24 -114 -3 -3
9 -6 478 -6 1044 0 922 -2 1030 -16 1044 -8 9 -24 16 -35 16 -10 0 -19 3 -19
8 0 4 -2 40 -3 80 -3 88 14 71 -220 214 -92 57 -179 110 -192 118 -13 8 -112
69 -220 135 -108 66 -207 127 -220 135 -13 8 -78 49 -145 90 -67 41 -133 83
-148 92 -36 22 -49 22 -62 -1z"/>
<path d="M3325 3620 c-55 -4 -125 -12 -155 -19 -128 -29 -225 -54 -244 -61
-12 -5 -38 -11 -58 -15 -38 -6 -50 -26 -26 -41 6 -4 45 -11 87 -15 42 -4 103
-12 136 -19 33 -6 85 -16 115 -22 30 -5 107 -14 170 -18 63 -5 139 -14 169
-19 29 -6 73 -11 97 -11 23 0 73 -7 109 -15 37 -9 97 -15 133 -13 l67 3 -2 46
c-2 72 -56 145 -148 199 -37 22 -52 24 -195 26 -85 1 -200 -2 -255 -6z"/>
<path d="M3972 3594 c-28 -19 -28 -23 8 -101 17 -35 30 -73 30 -83 0 -28 34
-44 61 -29 21 11 22 16 16 108 -5 74 -11 99 -24 109 -23 17 -64 15 -91 -4z"/>
<path d="M2621 3434 c-12 -19 -21 -39 -21 -43 0 -4 -20 -47 -44 -94 -80 -155
-242 -343 -391 -453 -94 -69 -111 -80 -144 -94 -19 -9 -22 -13 -12 -23 17 -17
662 -11 921 8 107 8 267 19 355 25 338 22 367 26 393 57 23 29 62 103 62 118
0 5 8 26 18 46 17 39 39 56 53 42 9 -9 -9 -76 -32 -126 -9 -20 -9 -31 -1 -39
12 -12 124 46 156 81 19 21 60 28 70 13 9 -14 -51 -68 -107 -97 -99 -52 -108
-75 -27 -75 53 0 71 -14 47 -37 -12 -13 -23 -13 -66 -4 -102 22 -106 20 -131
-59 -19 -60 -64 -143 -132 -248 -10 -15 -21 -34 -25 -42 -5 -8 -24 -40 -44
-70 -20 -30 -53 -86 -74 -125 -21 -38 -44 -79 -51 -90 -20 -31 -90 -162 -130
-245 -20 -41 -42 -86 -49 -100 -13 -24 -18 -52 -16 -77 0 -7 14 -13 30 -13 17
0 58 -6 93 -14 35 -8 128 -16 207 -18 l144 -3 28 50 c15 28 38 70 51 95 14 25
56 92 94 150 38 58 77 121 88 140 10 19 44 68 75 110 31 41 61 83 66 92 6 9
26 40 46 70 82 121 149 227 159 249 6 13 18 36 28 51 115 178 152 275 152 403
0 128 -37 167 -190 198 -134 28 -194 38 -265 47 -119 13 -246 31 -341 46 -49
8 -112 14 -140 14 -27 0 -80 7 -119 15 -38 8 -88 15 -110 15 -22 0 -60 5 -85
11 -25 6 -81 15 -125 19 -130 14 -236 30 -306 45 -109 24 -133 21 -158 -21z"/>
<path d="M5423 2949 c-16 -16 -17 -91 -1 -107 13 -13 213 -17 256 -6 19 6 22
13 22 55 0 36 -4 51 -17 57 -29 15 -246 15 -260 1z"/>
<path d="M5793 2933 c-9 -3 -13 -27 -13 -68 0 -71 -4 -77 -65 -85 l-40 -5 -1
-310 c0 -170 2 -448 5 -617 l6 -308 59 -52 c33 -29 156 -140 274 -245 117
-106 220 -193 228 -193 19 0 19 103 -1 560 -34 803 -46 1120 -45 1211 0 61 -4
99 -12 107 -9 9 -66 12 -197 11 -103 0 -192 -3 -198 -6z"/>
<path d="M5489 2753 c-7 -18 -9 -67 -5 -133 3 -58 6 -502 7 -987 1 -640 4
-887 13 -898 9 -12 16 -13 48 -2 21 7 41 16 44 20 8 7 6 2006 -2 2019 -3 4
-25 8 -50 8 -39 0 -46 -3 -55 -27z"/>
<path d="M3115 2713 c-82 -19 -91 -24 -109 -58 -45 -83 -222 -165 -356 -165
-150 1 -401 72 -509 146 -31 21 -47 24 -118 24 l-83 0 0 -68 c0 -79 2 -82 115
-154 155 -99 207 -122 335 -145 290 -51 522 12 686 189 76 80 121 216 78 232
-9 3 -16 5 -17 5 -1 -1 -11 -3 -22 -6z"/>
<path d="M2375 2678 c-134 -11 -157 -16 -153 -29 7 -21 156 -72 259 -88 171
-28 349 2 447 75 17 14 32 32 32 40 0 12 -36 14 -237 12 -131 -1 -287 -5 -348
-10z"/>
<path d="M4701 2321 c-8 -5 -57 -19 -110 -31 -91 -21 -166 -46 -184 -60 -13
-11 3 -38 26 -44 12 -3 54 1 92 9 39 8 82 15 97 15 15 0 45 6 65 14 21 7 57
19 81 25 24 7 46 19 49 27 13 34 -77 69 -116 45z"/>
<path d="M4860 2106 c-25 -7 -81 -21 -125 -31 -44 -10 -92 -24 -107 -32 -15
-7 -36 -13 -46 -13 -29 0 -48 -26 -32 -45 15 -18 104 -20 165 -4 22 6 59 14
82 19 23 5 50 13 60 19 29 15 96 39 126 46 22 4 28 11 25 28 -3 19 -10 22 -53
24 -27 1 -70 -4 -95 -11z"/>
<path d="M2075 1824 c-50 -19 -93 -58 -116 -109 -22 -48 -24 -89 -5 -142 8
-22 17 -69 21 -105 9 -80 -6 -113 -70 -160 -24 -18 -44 -36 -45 -40 0 -14 50
-8 83 8 93 47 131 103 162 234 37 159 51 201 73 225 27 30 53 32 76 6 23 -25
46 -203 46 -358 0 -96 3 -123 13 -123 24 0 42 28 92 145 11 26 19 80 22 153 5
88 10 118 24 135 16 20 19 21 34 6 18 -17 39 -96 55 -202 17 -117 85 -227 140
-227 36 0 33 30 -9 83 -10 12 -17 63 -23 165 -10 188 -16 211 -56 238 -48 33
-156 61 -257 68 -49 4 -119 8 -155 11 -43 3 -78 -1 -105 -11z"/>
<path d="M2903 1674 c-52 -55 -71 -92 -59 -113 4 -6 23 -13 42 -17 28 -5 42
-2 66 16 20 15 47 23 77 24 44 2 47 4 69 46 12 24 22 52 22 62 0 25 -39 38
-108 38 -55 0 -57 -1 -109 -56z"/>
<path d="M3162 1597 c-22 -26 -52 -103 -52 -133 0 -36 24 -57 79 -67 31 -6 37
-3 74 38 24 26 49 45 61 45 22 0 104 -27 121 -39 17 -13 157 -68 216 -85 83
-24 239 -22 314 5 84 29 127 64 123 97 -3 25 -7 27 -58 30 -31 2 -69 -3 -90
-11 -46 -19 -162 -47 -192 -47 -29 0 -114 30 -185 64 -29 14 -57 26 -63 26 -5
0 -19 14 -32 30 -20 28 -26 30 -87 30 -36 0 -91 7 -121 15 -68 18 -94 19 -108
2z"/>
<path d="M7467 1254 c-34 -19 -34 -57 0 -62 31 -4 62 43 42 63 -12 12 -18 11
-42 -1z"/>
<path d="M6363 953 c-15 -5 -18 -69 -4 -77 13 -8 71 14 72 27 5 47 -24 68 -68
50z"/>
</g>
</svg>
